<?xml version="1.0" encoding="utf-8"?>
<!-- Generator: Adobe Illustrator 15.0.0, SVG Export Plug-In . SVG Version: 6.00 Build 0)  -->
<!DOCTYPE svg PUBLIC "-//W3C//DTD SVG 1.1//EN" "http://www.w3.org/Graphics/SVG/1.1/DTD/svg11.dtd">
<svg version="1.1" id="Layer_1" xmlns="http://www.w3.org/2000/svg" xmlns:xlink="http://www.w3.org/1999/xlink" x="0px" y="0px"
	 width="16px" height="16px" viewBox="0 0 16 16" enable-background="new 0 0 16 16" xml:space="preserve">
<path fill="#231F20" d="M9.23,1.288v6.154c0,0.68-0.551,1.23-1.23,1.23c-0.68,0-1.231-0.551-1.231-1.23V1.288
	c0-0.68,0.551-1.23,1.231-1.23C8.679,0.058,9.23,0.608,9.23,1.288z M15.885,8.058c0-2.432-1.096-4.69-3.008-6.196
	c-0.4-0.313-0.98-0.247-1.295,0.154c-0.316,0.4-0.248,0.98,0.152,1.296c1.465,1.153,2.305,2.884,2.305,4.746
	c0,3.33-2.709,6.039-6.039,6.039c-3.33,0-6.039-2.709-6.039-6.039c0-1.861,0.839-3.591,2.302-4.744
	c0.4-0.315,0.469-0.896,0.153-1.296C4.101,1.616,3.521,1.548,3.12,1.864C1.211,3.37,0.116,5.627,0.116,8.058
	c0,4.348,3.537,7.885,7.884,7.885S15.885,12.405,15.885,8.058z"/>
</svg>
