<?xml version="1.0" encoding="utf-8"?>
<!-- Generator: Adobe Illustrator 15.0.0, SVG Export Plug-In . SVG Version: 6.00 Build 0)  -->
<!DOCTYPE svg PUBLIC "-//W3C//DTD SVG 1.1//EN" "http://www.w3.org/Graphics/SVG/1.1/DTD/svg11.dtd">
<svg version="1.1" id="Layer_1" xmlns="http://www.w3.org/2000/svg" xmlns:xlink="http://www.w3.org/1999/xlink" x="0px" y="0px"
	 width="24px" height="24px" viewBox="0 0 24 24" enable-background="new 0 0 24 24" xml:space="preserve">
<rect fill="none" width="24" height="24"/>
<path fill="#231F20" d="M21.231,4.615H10.154c0-1.529-1.24-2.769-2.77-2.769H2.77C1.241,1.847,0,3.086,0,4.615v2.77v0.923v12
	c0,1.528,1.241,2.77,2.77,2.77h18.462c1.528,0,2.769-1.241,2.769-2.77V7.385C24,5.855,22.76,4.615,21.231,4.615z M22.154,20.308
	c0,0.509-0.414,0.923-0.923,0.923H2.77c-0.509,0-0.923-0.414-0.923-0.923V7.385c0-0.51,0.414-0.924,0.923-0.924h18.462
	c0.509,0,0.923,0.414,0.923,0.924V20.308z"/>
<path fill="#231F20" d="M16.908,12.956c-0.047-0.144-0.172-0.248-0.321-0.271l-2.921-0.425l-1.308-2.647
	c-0.134-0.271-0.58-0.271-0.714,0l-1.308,2.647l-2.922,0.425c-0.149,0.022-0.274,0.127-0.321,0.271
	c-0.047,0.145-0.008,0.303,0.101,0.408l2.114,2.062l-0.499,2.91c-0.025,0.149,0.036,0.301,0.158,0.39
	c0.123,0.089,0.286,0.101,0.42,0.03l2.613-1.374l2.614,1.374c0.058,0.03,0.121,0.046,0.186,0.046c0.082,0,0.164-0.025,0.233-0.076
	c0.122-0.089,0.184-0.24,0.158-0.39l-0.499-2.91l2.114-2.062C16.916,13.259,16.955,13.101,16.908,12.956z"/>
</svg>
