<?xml version="1.0" encoding="utf-8"?>
<!-- Generator: Adobe Illustrator 15.0.0, SVG Export Plug-In . SVG Version: 6.00 Build 0)  -->
<!DOCTYPE svg PUBLIC "-//W3C//DTD SVG 1.1//EN" "http://www.w3.org/Graphics/SVG/1.1/DTD/svg11.dtd">
<svg version="1.1" id="Layer_1" xmlns="http://www.w3.org/2000/svg" xmlns:xlink="http://www.w3.org/1999/xlink" x="0px" y="0px"
	 width="16px" height="16px" viewBox="0 0 16 16" enable-background="new 0 0 16 16" xml:space="preserve">
<path fill="#231F20" d="M8.299,11.85c-0.196,0-0.393-0.076-0.543-0.225c-0.301-0.301-0.301-0.789,0-1.09l1.641-1.641H4.744
	C4.249,8.895,3.85,8.494,3.85,8c0-0.493,0.398-0.893,0.894-0.893h4.653L7.755,5.467c-0.301-0.303-0.301-0.789,0-1.09
	s0.788-0.301,1.088,0l3.08,3.08c0.145,0.145,0.225,0.34,0.225,0.543c0,0.205-0.08,0.402-0.225,0.545l-3.08,3.08
	C8.693,11.773,8.496,11.85,8.299,11.85z M15,8c0-1.378-0.4-2.712-1.156-3.855c-0.152-0.23-0.463-0.295-0.693-0.142
	c-0.23,0.152-0.293,0.463-0.141,0.692C13.658,5.676,14,6.818,14,8c0,3.309-2.691,6-6,6c-3.308,0-6-2.691-6-6s2.692-6,6-6
	c1.189,0,2.338,0.348,3.324,1.005c0.23,0.152,0.54,0.09,0.693-0.139c0.153-0.229,0.092-0.54-0.139-0.693C10.729,1.405,9.387,1,8,1
	C4.14,1,1,4.141,1,8s3.14,7,7,7C11.859,15,15,11.859,15,8z"/>
</svg>
