<?xml version="1.0" encoding="utf-8"?>
<!-- Generator: Adobe Illustrator 15.0.0, SVG Export Plug-In . SVG Version: 6.00 Build 0)  -->
<!DOCTYPE svg PUBLIC "-//W3C//DTD SVG 1.1//EN" "http://www.w3.org/Graphics/SVG/1.1/DTD/svg11.dtd">
<svg version="1.1" id="Layer_1" xmlns="http://www.w3.org/2000/svg" xmlns:xlink="http://www.w3.org/1999/xlink" x="0px" y="0px"
	 width="14px" height="14px" viewBox="0 0 14 14" enable-background="new 0 0 14 14" xml:space="preserve">
<path fill="#FFFFFF" d="M11.948,8.299c0.037-0.14,0.162-0.237,0.307-0.237h1.746V5.938h-1.746c-0.145,0-0.27-0.096-0.307-0.236
	c-0.119-0.452-0.297-0.884-0.531-1.283c-0.072-0.124-0.053-0.282,0.049-0.384l1.232-1.234L11.2,1.3L9.966,2.535
	c-0.104,0.102-0.262,0.12-0.385,0.047C9.183,2.35,8.749,2.171,8.296,2.053C8.159,2.017,8.06,1.892,8.06,1.744V0H5.938v1.744
	c0,0.147-0.096,0.272-0.236,0.309C5.249,2.171,4.819,2.35,4.419,2.582C4.294,2.655,4.136,2.637,4.034,2.535L2.8,1.3L1.3,2.801
	l1.234,1.234c0.102,0.102,0.123,0.26,0.049,0.384C2.349,4.818,2.173,5.25,2.052,5.702C2.015,5.843,1.89,5.938,1.743,5.938h-1.744
	v2.123h1.744c0.146,0,0.271,0.098,0.309,0.237C2.173,8.75,2.349,9.182,2.583,9.581c0.074,0.124,0.053,0.282-0.049,0.386L1.3,11.201
	l1.5,1.5l1.234-1.234c0.102-0.104,0.26-0.123,0.385-0.049c0.4,0.232,0.83,0.411,1.283,0.531c0.141,0.036,0.236,0.161,0.236,0.307V14
	H8.06v-1.744c0-0.146,0.1-0.271,0.236-0.307c0.453-0.12,0.887-0.299,1.285-0.531c0.123-0.074,0.281-0.055,0.385,0.049l1.234,1.234
	l1.498-1.5l-1.232-1.234c-0.102-0.104-0.121-0.262-0.049-0.386C11.651,9.182,11.829,8.75,11.948,8.299z M7.001,9.581
	c-1.426,0-2.582-1.154-2.582-2.58s1.156-2.582,2.582-2.582s2.582,1.156,2.582,2.582S8.427,9.581,7.001,9.581z"/>
</svg>
