<?xml version="1.0" encoding="utf-8"?>
<!-- Generator: Adobe Illustrator 15.0.0, SVG Export Plug-In . SVG Version: 6.00 Build 0)  -->
<!DOCTYPE svg PUBLIC "-//W3C//DTD SVG 1.1//EN" "http://www.w3.org/Graphics/SVG/1.1/DTD/svg11.dtd">
<svg version="1.1" id="Layer_1" xmlns="http://www.w3.org/2000/svg" xmlns:xlink="http://www.w3.org/1999/xlink" x="0px" y="0px"
	 width="14px" height="14px" viewBox="0 0 14 14" enable-background="new 0 0 14 14" xml:space="preserve">
<path fill="#FFFFFF" d="M7,14c-3.86,0-7-3.141-7-7s3.14-7,7-7c1.387,0,2.729,0.405,3.879,1.173c0.23,0.153,0.291,0.464,0.139,0.693
	c-0.154,0.229-0.463,0.291-0.693,0.139C9.338,1.348,8.189,1,7,1C3.691,1,1,3.691,1,7s2.691,6,6,6s6-2.691,6-6
	c0-1.182-0.344-2.324-0.99-3.305c-0.152-0.229-0.09-0.54,0.141-0.692c0.23-0.153,0.541-0.089,0.693,0.142C13.6,4.288,14,5.622,14,7
	C14,10.859,10.859,14,7,14z"/>
<g>
	<path fill="#FFFFFF" d="M9.146,10.582l-2.13-2.129l-2.146,2.145L3.402,9.129l2.146-2.145L3.419,4.855l1.431-1.43l2.129,2.127
		l2.15-2.15l1.469,1.471l-2.15,2.148l2.129,2.129L9.146,10.582z"/>
</g>
</svg>
