<?xml version="1.0" encoding="utf-8"?>
<!-- Generator: Adobe Illustrator 15.0.0, SVG Export Plug-In . SVG Version: 6.00 Build 0)  -->
<!DOCTYPE svg PUBLIC "-//W3C//DTD SVG 1.1//EN" "http://www.w3.org/Graphics/SVG/1.1/DTD/svg11.dtd">
<svg version="1.1" id="Layer_1" xmlns="http://www.w3.org/2000/svg" xmlns:xlink="http://www.w3.org/1999/xlink" x="0px" y="0px"
	 width="14px" height="14px" viewBox="0 0 14 14" enable-background="new 0 0 14 14" xml:space="preserve">
<g>
	<polygon fill="#FFFFFF" points="6,10.348 3.028,7.376 4.248,6.156 6,7.909 9.689,4.22 10.908,5.439 	"/>
	<path fill="#FFFFFF" d="M7,14c-3.86,0-7-3.141-7-7s3.14-7,7-7c1.387,0,2.729,0.405,3.879,1.173c0.23,0.153,0.292,0.464,0.139,0.693
		c-0.153,0.229-0.463,0.291-0.693,0.139C9.339,1.348,8.189,1,7,1C3.691,1,1,3.691,1,7s2.691,6,6,6s6-2.691,6-6
		c0-1.182-0.343-2.324-0.99-3.305c-0.152-0.229-0.09-0.54,0.141-0.692c0.23-0.153,0.541-0.089,0.693,0.142C13.6,4.288,14,5.622,14,7
		C14,10.859,10.859,14,7,14z"/>
</g>
</svg>
