<?xml version="1.0" encoding="utf-8"?>
<!-- Generator: Adobe Illustrator 15.0.0, SVG Export Plug-In . SVG Version: 6.00 Build 0)  -->
<!DOCTYPE svg PUBLIC "-//W3C//DTD SVG 1.1//EN" "http://www.w3.org/Graphics/SVG/1.1/DTD/svg11.dtd">
<svg version="1.1" id="Layer_1" xmlns="http://www.w3.org/2000/svg" xmlns:xlink="http://www.w3.org/1999/xlink" x="0px" y="0px"
	 width="14px" height="14px" viewBox="0 0 14 14" enable-background="new 0 0 14 14" xml:space="preserve">
<path fill="#FFFFFF" d="M10.625,6.155l-3.08-3.079C7.403,2.932,7.205,2.851,7,2.851c-0.203,0-0.399,0.081-0.544,0.226L3.377,6.155
	c-0.302,0.301-0.302,0.788,0,1.089c0.301,0.301,0.787,0.301,1.089,0l1.641-1.642v4.653c0,0.495,0.4,0.894,0.894,0.894
	s0.894-0.398,0.894-0.894V5.603l1.641,1.642c0.301,0.301,0.789,0.301,1.09,0c0.148-0.15,0.225-0.348,0.225-0.544
	C10.85,6.503,10.773,6.306,10.625,6.155z"/>
</svg>
