<?xml version="1.0" encoding="utf-8"?>
<!-- Generator: Adobe Illustrator 15.0.0, SVG Export Plug-In . SVG Version: 6.00 Build 0)  -->
<!DOCTYPE svg PUBLIC "-//W3C//DTD SVG 1.1//EN" "http://www.w3.org/Graphics/SVG/1.1/DTD/svg11.dtd">
<svg version="1.1" id="Layer_1" xmlns="http://www.w3.org/2000/svg" xmlns:xlink="http://www.w3.org/1999/xlink" x="0px" y="0px"
	 width="14px" height="14px" viewBox="0 0 14 14" enable-background="new 0 0 14 14" xml:space="preserve">
<g>
	<path fill="#FFFFFF" d="M7,14c-3.86,0-7-3.141-7-7s3.14-7,7-7c1.387,0,2.729,0.405,3.879,1.173
		c0.229,0.153,0.291,0.464,0.139,0.693c-0.154,0.229-0.464,0.291-0.693,0.139C9.338,1.348,8.188,1,7,1C3.691,1,1,3.691,1,7
		s2.691,6,6,6c3.308,0,6-2.691,6-6c0-1.182-0.343-2.324-0.991-3.305c-0.152-0.229-0.089-0.54,0.142-0.692
		c0.23-0.153,0.54-0.089,0.692,0.142C13.6,4.288,14,5.622,14,7C14,10.859,10.859,14,7,14z"/>
	<path fill="#FFFFFF" d="M10.574,7.825H3.426c-0.457,0-0.826-0.37-0.826-0.826c0-0.457,0.369-0.826,0.826-0.826h7.148
		c0.457,0,0.826,0.369,0.826,0.826C11.4,7.455,11.031,7.825,10.574,7.825z"/>
</g>
</svg>
