<?xml version="1.0" encoding="utf-8"?>
<!-- Generator: Adobe Illustrator 15.0.0, SVG Export Plug-In . SVG Version: 6.00 Build 0)  -->
<!DOCTYPE svg PUBLIC "-//W3C//DTD SVG 1.1//EN" "http://www.w3.org/Graphics/SVG/1.1/DTD/svg11.dtd">
<svg version="1.1" id="Layer_1" xmlns="http://www.w3.org/2000/svg" xmlns:xlink="http://www.w3.org/1999/xlink" x="0px" y="0px"
	 width="14px" height="14px" viewBox="0 0 14 14" enable-background="new 0 0 14 14" xml:space="preserve">
<g>
	<path fill="#FFFFFF" d="M10.625,6.155l-3.08-3.079C7.403,2.932,7.205,2.851,7,2.851c-0.203,0-0.399,0.081-0.544,0.226L3.377,6.155
		c-0.302,0.301-0.302,0.788,0,1.089c0.301,0.301,0.787,0.301,1.089,0l1.641-1.642v4.653c0,0.495,0.4,0.894,0.894,0.894
		s0.894-0.398,0.894-0.894V5.603l1.641,1.642c0.301,0.301,0.789,0.301,1.09,0c0.148-0.15,0.225-0.348,0.225-0.544
		C10.85,6.503,10.773,6.306,10.625,6.155z"/>
	<path fill="#FFFFFF" d="M7,14c-3.859,0-7-3.141-7-7S3.14,0,7,0c1.387,0,2.729,0.405,3.879,1.173
		c0.23,0.153,0.293,0.464,0.139,0.693c-0.152,0.229-0.463,0.291-0.693,0.139C9.338,1.348,8.189,1,7,1C3.692,1,1,3.691,1,7
		s2.692,6,6,6c3.309,0,6-2.691,6-6c0-1.182-0.342-2.324-0.99-3.305c-0.152-0.229-0.09-0.54,0.141-0.692
		c0.23-0.153,0.541-0.089,0.693,0.142C13.6,4.288,14,5.622,14,7C14,10.859,10.859,14,7,14z"/>
</g>
</svg>
