<?xml version="1.0" encoding="utf-8"?>
<!-- Generator: Adobe Illustrator 15.0.0, SVG Export Plug-In . SVG Version: 6.00 Build 0)  -->
<!DOCTYPE svg PUBLIC "-//W3C//DTD SVG 1.1//EN" "http://www.w3.org/Graphics/SVG/1.1/DTD/svg11.dtd">
<svg version="1.1" id="Layer_1" xmlns="http://www.w3.org/2000/svg" xmlns:xlink="http://www.w3.org/1999/xlink" x="0px" y="0px"
	 width="24px" height="24px" viewBox="0 0 24 24" enable-background="new 0 0 24 24" xml:space="preserve">
<rect x="0" fill="none" width="24" height="24"/>
<path fill="#231F20" d="M21.232,4.615H10.155c0-1.529-1.24-2.769-2.77-2.769H2.77C1.242,1.847,0,3.086,0,4.615v2.77v0.923v12
	c0,1.528,1.241,2.77,2.77,2.77h18.462c1.527,0,2.768-1.241,2.768-2.77V7.385C24,5.855,22.76,4.615,21.232,4.615z M22.154,20.308
	c0,0.509-0.414,0.923-0.922,0.923H2.77c-0.509,0-0.923-0.414-0.923-0.923V7.385c0-0.51,0.414-0.924,0.923-0.924h18.462
	c0.508,0,0.922,0.414,0.922,0.924V20.308z"/>
</svg>
