<?xml version="1.0" encoding="utf-8"?>
<!-- Generator: Adobe Illustrator 15.0.0, SVG Export Plug-In . SVG Version: 6.00 Build 0)  -->
<!DOCTYPE svg PUBLIC "-//W3C//DTD SVG 1.1//EN" "http://www.w3.org/Graphics/SVG/1.1/DTD/svg11.dtd">
<svg version="1.1" id="Layer_1" xmlns="http://www.w3.org/2000/svg" xmlns:xlink="http://www.w3.org/1999/xlink" x="0px" y="0px"
	 width="14px" height="14px" viewBox="0 0 14 14" enable-background="new 0 0 14 14" xml:space="preserve">
<path fill="#FFFFFF" d="M3.375,7.845l3.079,3.079C6.597,11.068,6.795,11.149,7,11.149c0.203,0,0.399-0.081,0.543-0.226l3.08-3.079
	c0.301-0.301,0.301-0.788,0-1.089s-0.787-0.301-1.09,0L7.893,8.397V3.744c0-0.495-0.399-0.894-0.893-0.894S6.106,3.249,6.106,3.744
	v4.653L4.465,6.756c-0.302-0.301-0.789-0.301-1.09,0C3.226,6.906,3.151,7.104,3.151,7.3C3.151,7.497,3.226,7.694,3.375,7.845z"/>
</svg>
