<?xml version="1.0" encoding="utf-8"?>
<!-- Generator: Adobe Illustrator 15.0.0, SVG Export Plug-In . SVG Version: 6.00 Build 0)  -->
<!DOCTYPE svg PUBLIC "-//W3C//DTD SVG 1.1//EN" "http://www.w3.org/Graphics/SVG/1.1/DTD/svg11.dtd">
<svg version="1.1" id="Layer_1" xmlns="http://www.w3.org/2000/svg" xmlns:xlink="http://www.w3.org/1999/xlink" x="0px" y="0px"
	 width="340px" height="140px" viewBox="0 0 340 140" enable-background="new 0 0 340 140" xml:space="preserve">
<rect fill="#FFFFFF" width="340" height="140"/>
<g enable-background="new    ">
	<path fill="#5F5B5A" d="M149.888,30.415v-8.59h1.711l2.033,6.082c0.188,0.566,0.324,0.99,0.41,1.271
		c0.098-0.313,0.25-0.771,0.457-1.377l2.057-5.977h1.529v8.59h-1.096v-7.189l-2.496,7.189h-1.025l-2.484-7.313v7.313H149.888z"/>
	<path fill="#5F5B5A" d="M163.845,29.647c-0.391,0.332-0.767,0.566-1.128,0.703s-0.749,0.205-1.163,0.205
		c-0.684,0-1.209-0.167-1.576-0.501s-0.551-0.761-0.551-1.28c0-0.305,0.069-0.583,0.208-0.835s0.32-0.454,0.545-0.606
		s0.478-0.268,0.759-0.346c0.207-0.055,0.52-0.107,0.938-0.158c0.852-0.102,1.479-0.223,1.881-0.363
		c0.004-0.145,0.006-0.236,0.006-0.275c0-0.43-0.1-0.732-0.299-0.908c-0.27-0.238-0.67-0.357-1.201-0.357
		c-0.496,0-0.862,0.087-1.099,0.261s-0.411,0.481-0.524,0.923l-1.031-0.141c0.094-0.441,0.248-0.798,0.463-1.069
		s0.525-0.48,0.932-0.627s0.877-0.22,1.412-0.22c0.531,0,0.963,0.063,1.295,0.188s0.576,0.282,0.732,0.472s0.266,0.429,0.328,0.718
		c0.035,0.18,0.053,0.504,0.053,0.973v1.406c0,0.98,0.022,1.601,0.067,1.86s0.134,0.509,0.267,0.747h-1.102
		C163.946,30.196,163.876,29.94,163.845,29.647z M163.757,27.292c-0.383,0.156-0.957,0.289-1.723,0.398
		c-0.434,0.063-0.74,0.133-0.92,0.211s-0.318,0.192-0.416,0.343s-0.146,0.317-0.146,0.501c0,0.281,0.106,0.516,0.319,0.703
		s0.524,0.281,0.935,0.281c0.406,0,0.768-0.089,1.084-0.267s0.549-0.421,0.697-0.729c0.113-0.238,0.17-0.59,0.17-1.055V27.292z"/>
	<path fill="#5F5B5A" d="M166.464,23.038v-1.213h1.055v1.213H166.464z M166.464,30.415v-6.223h1.055v6.223H166.464z"/>
	<path fill="#5F5B5A" d="M169.124,30.415v-6.223h0.949v0.885c0.457-0.684,1.117-1.025,1.98-1.025c0.375,0,0.72,0.067,1.034,0.202
		s0.55,0.312,0.706,0.53s0.266,0.479,0.328,0.779c0.039,0.195,0.059,0.537,0.059,1.025v3.826h-1.055v-3.785
		c0-0.43-0.041-0.751-0.123-0.964s-0.228-0.383-0.437-0.51s-0.454-0.19-0.735-0.19c-0.449,0-0.837,0.143-1.163,0.428
		s-0.489,0.826-0.489,1.623v3.398H169.124z"/>
	<path fill="#5F5B5A" d="M181.235,30.415v-7.576h-2.83v-1.014h6.809v1.014h-2.842v7.576H181.235z"/>
	<path fill="#5F5B5A" d="M188.976,29.647c-0.391,0.332-0.767,0.566-1.128,0.703s-0.749,0.205-1.163,0.205
		c-0.684,0-1.209-0.167-1.576-0.501s-0.551-0.761-0.551-1.28c0-0.305,0.069-0.583,0.208-0.835s0.32-0.454,0.545-0.606
		s0.478-0.268,0.759-0.346c0.207-0.055,0.52-0.107,0.938-0.158c0.852-0.102,1.479-0.223,1.881-0.363
		c0.004-0.145,0.006-0.236,0.006-0.275c0-0.43-0.1-0.732-0.299-0.908c-0.27-0.238-0.67-0.357-1.201-0.357
		c-0.496,0-0.862,0.087-1.099,0.261s-0.411,0.481-0.524,0.923l-1.031-0.141c0.094-0.441,0.248-0.798,0.463-1.069
		s0.525-0.48,0.932-0.627s0.877-0.22,1.412-0.22c0.531,0,0.963,0.063,1.295,0.188s0.576,0.282,0.732,0.472s0.266,0.429,0.328,0.718
		c0.035,0.18,0.053,0.504,0.053,0.973v1.406c0,0.98,0.022,1.601,0.067,1.86s0.134,0.509,0.267,0.747h-1.102
		C189.077,30.196,189.007,29.94,188.976,29.647z M188.888,27.292c-0.383,0.156-0.957,0.289-1.723,0.398
		c-0.434,0.063-0.74,0.133-0.92,0.211s-0.318,0.192-0.416,0.343s-0.146,0.317-0.146,0.501c0,0.281,0.106,0.516,0.319,0.703
		s0.524,0.281,0.935,0.281c0.406,0,0.768-0.089,1.084-0.267s0.549-0.421,0.697-0.729c0.113-0.238,0.17-0.59,0.17-1.055V27.292z"/>
	<path fill="#5F5B5A" d="M191.167,28.557l1.043-0.164c0.059,0.418,0.222,0.738,0.489,0.961s0.642,0.334,1.122,0.334
		c0.484,0,0.844-0.099,1.078-0.296s0.352-0.429,0.352-0.694c0-0.238-0.104-0.426-0.311-0.563c-0.145-0.094-0.504-0.213-1.078-0.357
		c-0.773-0.195-1.31-0.364-1.608-0.507s-0.525-0.34-0.68-0.592s-0.231-0.53-0.231-0.835c0-0.277,0.063-0.534,0.19-0.771
		s0.3-0.433,0.519-0.589c0.164-0.121,0.388-0.224,0.671-0.308s0.587-0.126,0.911-0.126c0.488,0,0.917,0.07,1.286,0.211
		s0.642,0.331,0.817,0.571s0.297,0.562,0.363,0.964l-1.031,0.141c-0.047-0.32-0.183-0.57-0.407-0.75s-0.542-0.27-0.952-0.27
		c-0.484,0-0.83,0.08-1.037,0.24s-0.311,0.348-0.311,0.563c0,0.137,0.043,0.26,0.129,0.369c0.086,0.113,0.221,0.207,0.404,0.281
		c0.105,0.039,0.416,0.129,0.932,0.27c0.746,0.199,1.267,0.362,1.562,0.489s0.526,0.312,0.694,0.554s0.252,0.543,0.252,0.902
		c0,0.352-0.103,0.683-0.308,0.993s-0.501,0.551-0.888,0.721s-0.824,0.255-1.313,0.255c-0.809,0-1.425-0.168-1.849-0.504
		S191.284,29.217,191.167,28.557z"/>
	<path fill="#5F5B5A" d="M197.595,30.415v-8.59h1.055v4.898l2.496-2.531h1.365l-2.379,2.309l2.619,3.914h-1.301l-2.057-3.182
		l-0.744,0.715v2.467H197.595z"/>
	<path fill="#5F5B5A" d="M203.167,28.557l1.043-0.164c0.059,0.418,0.222,0.738,0.489,0.961s0.642,0.334,1.122,0.334
		c0.484,0,0.844-0.099,1.078-0.296s0.352-0.429,0.352-0.694c0-0.238-0.104-0.426-0.311-0.563c-0.145-0.094-0.504-0.213-1.078-0.357
		c-0.773-0.195-1.31-0.364-1.608-0.507s-0.525-0.34-0.68-0.592s-0.231-0.53-0.231-0.835c0-0.277,0.063-0.534,0.19-0.771
		s0.3-0.433,0.519-0.589c0.164-0.121,0.388-0.224,0.671-0.308s0.587-0.126,0.911-0.126c0.488,0,0.917,0.07,1.286,0.211
		s0.642,0.331,0.817,0.571s0.297,0.562,0.363,0.964l-1.031,0.141c-0.047-0.32-0.183-0.57-0.407-0.75s-0.542-0.27-0.952-0.27
		c-0.484,0-0.83,0.08-1.037,0.24s-0.311,0.348-0.311,0.563c0,0.137,0.043,0.26,0.129,0.369c0.086,0.113,0.221,0.207,0.404,0.281
		c0.105,0.039,0.416,0.129,0.932,0.27c0.746,0.199,1.267,0.362,1.562,0.489s0.526,0.312,0.694,0.554s0.252,0.543,0.252,0.902
		c0,0.352-0.103,0.683-0.308,0.993s-0.501,0.551-0.888,0.721s-0.824,0.255-1.313,0.255c-0.809,0-1.425-0.168-1.849-0.504
		S203.284,29.217,203.167,28.557z"/>
</g>
<rect x="148.997" y="41.846" fill="none" width="171.681" height="72.367"/>
<g enable-background="new    ">
	<path fill="#00ABD6" d="M150.46,56.165V41.848h5.371c1.094,0,1.971,0.145,2.632,0.435s1.178,0.735,1.553,1.338
		s0.562,1.232,0.562,1.89c0,0.612-0.166,1.188-0.498,1.729s-0.833,0.977-1.504,1.309c0.866,0.254,1.532,0.687,1.997,1.299
		s0.698,1.335,0.698,2.168c0,0.671-0.142,1.294-0.425,1.87s-0.633,1.021-1.05,1.333s-0.939,0.549-1.567,0.708
		s-1.398,0.239-2.31,0.239H150.46z M152.354,47.864h3.096c0.84,0,1.442-0.056,1.807-0.166c0.482-0.144,0.845-0.381,1.089-0.713
		s0.366-0.749,0.366-1.25c0-0.476-0.114-0.894-0.342-1.255s-0.553-0.608-0.977-0.742s-1.149-0.2-2.178-0.2h-2.861V47.864z
		 M152.354,54.475h3.564c0.612,0,1.042-0.022,1.289-0.068c0.436-0.078,0.801-0.208,1.094-0.391s0.534-0.447,0.723-0.796
		s0.283-0.75,0.283-1.206c0-0.534-0.137-0.998-0.41-1.392s-0.653-0.671-1.138-0.83s-1.183-0.239-2.095-0.239h-3.311V54.475z"/>
	<path fill="#00ABD6" d="M170.421,54.885c-0.651,0.554-1.278,0.944-1.88,1.172s-1.249,0.342-1.938,0.342
		c-1.139,0-2.015-0.278-2.627-0.835s-0.918-1.268-0.918-2.134c0-0.508,0.116-0.972,0.347-1.392s0.534-0.757,0.908-1.011
		s0.796-0.446,1.265-0.576c0.345-0.091,0.866-0.179,1.563-0.264c1.419-0.169,2.464-0.371,3.135-0.605
		c0.006-0.241,0.01-0.394,0.01-0.459c0-0.716-0.166-1.221-0.498-1.514c-0.449-0.397-1.117-0.596-2.002-0.596
		c-0.827,0-1.437,0.145-1.831,0.435s-0.685,0.803-0.874,1.538l-1.719-0.234c0.156-0.735,0.414-1.33,0.771-1.782
		s0.875-0.801,1.553-1.045s1.461-0.366,2.354-0.366c0.885,0,1.605,0.104,2.158,0.313c0.554,0.208,0.96,0.471,1.221,0.786
		s0.442,0.715,0.547,1.196c0.059,0.3,0.088,0.84,0.088,1.621v2.344c0,1.634,0.038,2.668,0.112,3.101s0.223,0.848,0.444,1.245h-1.836
		C170.59,55.8,170.473,55.374,170.421,54.885z M170.274,50.959c-0.638,0.261-1.595,0.481-2.871,0.664
		c-0.723,0.104-1.234,0.222-1.533,0.352s-0.531,0.32-0.693,0.571s-0.244,0.529-0.244,0.835c0,0.469,0.177,0.859,0.532,1.172
		s0.874,0.469,1.558,0.469c0.677,0,1.279-0.148,1.807-0.444s0.915-0.701,1.162-1.216c0.189-0.397,0.283-0.983,0.283-1.758V50.959z"
		/>
	<path fill="#00ABD6" d="M181.544,52.366l1.729,0.225c-0.188,1.191-0.673,2.124-1.45,2.798s-1.733,1.011-2.866,1.011
		c-1.419,0-2.56-0.464-3.423-1.392s-1.294-2.258-1.294-3.989c0-1.12,0.186-2.1,0.557-2.939s0.937-1.47,1.694-1.89
		s1.584-0.63,2.476-0.63c1.126,0,2.048,0.285,2.764,0.854s1.175,1.379,1.377,2.427l-1.709,0.264
		c-0.163-0.696-0.45-1.221-0.864-1.572s-0.913-0.527-1.499-0.527c-0.886,0-1.604,0.317-2.158,0.952s-0.83,1.639-0.83,3.013
		c0,1.394,0.267,2.405,0.801,3.037s1.23,0.947,2.09,0.947c0.69,0,1.267-0.212,1.729-0.635S181.42,53.245,181.544,52.366z"/>
	<path fill="#00ABD6" d="M184.786,56.165V41.848h1.758v8.164l4.16-4.219h2.275l-3.965,3.848l4.365,6.523h-2.168l-3.428-5.303
		l-1.24,1.191v4.111H184.786z"/>
	<path fill="#00ABD6" d="M201.573,56.165v-1.523c-0.808,1.172-1.904,1.758-3.291,1.758c-0.612,0-1.183-0.117-1.714-0.352
		s-0.924-0.529-1.182-0.884s-0.438-0.789-0.542-1.304c-0.071-0.345-0.107-0.892-0.107-1.641v-6.426h1.758v5.752
		c0,0.918,0.036,1.536,0.107,1.855c0.11,0.462,0.345,0.825,0.703,1.089s0.801,0.396,1.328,0.396s1.022-0.135,1.484-0.405
		s0.79-0.638,0.981-1.104s0.288-1.141,0.288-2.026v-5.557h1.758v10.371H201.573z"/>
	<path fill="#00ABD6" d="M205.899,60.139V45.793h1.602v1.348c0.378-0.527,0.804-0.923,1.279-1.187s1.052-0.396,1.729-0.396
		c0.886,0,1.667,0.228,2.344,0.684s1.188,1.099,1.533,1.929s0.518,1.74,0.518,2.729c0,1.062-0.19,2.017-0.571,2.866
		s-0.934,1.501-1.66,1.953s-1.489,0.679-2.29,0.679c-0.586,0-1.112-0.124-1.577-0.371s-0.848-0.56-1.147-0.938v5.049H205.899z
		 M207.491,51.038c0,1.335,0.271,2.321,0.811,2.959s1.194,0.957,1.963,0.957c0.781,0,1.45-0.33,2.007-0.991s0.835-1.685,0.835-3.071
		c0-1.321-0.272-2.312-0.815-2.969s-1.193-0.986-1.948-0.986c-0.749,0-1.411,0.35-1.987,1.05S207.491,49.703,207.491,51.038z"/>
	<path fill="#00ABD6" d="M221.876,53.069l1.738-0.273c0.098,0.696,0.37,1.23,0.815,1.602s1.069,0.557,1.87,0.557
		c0.808,0,1.406-0.164,1.797-0.493s0.586-0.715,0.586-1.157c0-0.397-0.173-0.71-0.518-0.938c-0.241-0.156-0.84-0.354-1.797-0.596
		c-1.289-0.325-2.183-0.607-2.681-0.845s-0.875-0.566-1.133-0.986s-0.386-0.884-0.386-1.392c0-0.462,0.106-0.891,0.317-1.284
		s0.5-0.721,0.864-0.981c0.273-0.202,0.646-0.373,1.118-0.513s0.979-0.21,1.519-0.21c0.813,0,1.528,0.117,2.144,0.352
		s1.069,0.552,1.362,0.952s0.495,0.936,0.605,1.606l-1.719,0.234c-0.078-0.534-0.304-0.95-0.679-1.25s-0.903-0.449-1.587-0.449
		c-0.808,0-1.384,0.134-1.729,0.4s-0.518,0.579-0.518,0.938c0,0.228,0.071,0.433,0.215,0.615c0.144,0.188,0.368,0.345,0.674,0.469
		c0.176,0.065,0.693,0.215,1.553,0.449c1.243,0.332,2.11,0.604,2.603,0.815s0.877,0.52,1.157,0.923s0.42,0.905,0.42,1.504
		c0,0.586-0.171,1.138-0.513,1.655s-0.835,0.918-1.479,1.201s-1.374,0.425-2.188,0.425c-1.348,0-2.374-0.28-3.081-0.84
		S222.071,54.169,221.876,53.069z"/>
	<path fill="#00ABD6" d="M231.925,50.979c0-1.921,0.534-3.343,1.602-4.268c0.892-0.769,1.979-1.152,3.262-1.152
		c1.426,0,2.591,0.467,3.496,1.401s1.357,2.225,1.357,3.872c0,1.335-0.2,2.385-0.601,3.149s-0.982,1.359-1.748,1.782
		s-1.6,0.635-2.505,0.635c-1.452,0-2.626-0.466-3.521-1.396S231.925,52.73,231.925,50.979z M233.731,50.979
		c0,1.328,0.29,2.322,0.869,2.983s1.309,0.991,2.188,0.991c0.872,0,1.599-0.332,2.178-0.996s0.869-1.677,0.869-3.037
		c0-1.282-0.292-2.254-0.874-2.915s-1.307-0.991-2.173-0.991c-0.879,0-1.608,0.329-2.188,0.986S233.731,49.651,233.731,50.979z"/>
	<path fill="#00ABD6" d="M244.122,56.165v-9.004h-1.553v-1.367h1.553V44.69c0-0.696,0.062-1.214,0.186-1.553
		c0.169-0.456,0.468-0.825,0.894-1.108s1.023-0.425,1.792-0.425c0.495,0,1.042,0.059,1.641,0.176l-0.264,1.533
		c-0.364-0.065-0.71-0.098-1.035-0.098c-0.534,0-0.911,0.114-1.133,0.342s-0.332,0.654-0.332,1.279v0.957h2.021v1.367h-2.021v9.004
		H244.122z"/>
	<path fill="#00ABD6" d="M253.097,54.592l0.254,1.553c-0.495,0.104-0.938,0.156-1.328,0.156c-0.638,0-1.133-0.101-1.484-0.303
		s-0.599-0.467-0.742-0.796s-0.215-1.021-0.215-2.075v-5.967h-1.289v-1.367h1.289v-2.568l1.748-1.055v3.623h1.768v1.367h-1.768
		v6.064c0,0.501,0.03,0.823,0.093,0.967s0.162,0.257,0.303,0.342s0.34,0.127,0.601,0.127
		C252.521,54.661,252.777,54.638,253.097,54.592z"/>
	<path fill="#00ABD6" d="M256.729,56.165l-3.174-10.371h1.816l1.65,5.986l0.615,2.227c0.026-0.11,0.205-0.823,0.537-2.139
		l1.65-6.074h1.807l1.553,6.016l0.518,1.982l0.596-2.002l1.777-5.996h1.709l-3.242,10.371h-1.826l-1.65-6.211l-0.4-1.768l-2.1,7.979
		H256.729z"/>
	<path fill="#00ABD6" d="M276.026,54.885c-0.651,0.554-1.278,0.944-1.88,1.172s-1.248,0.342-1.938,0.342
		c-1.14,0-2.015-0.278-2.627-0.835s-0.918-1.268-0.918-2.134c0-0.508,0.116-0.972,0.347-1.392s0.533-0.757,0.908-1.011
		s0.796-0.446,1.265-0.576c0.345-0.091,0.866-0.179,1.563-0.264c1.419-0.169,2.464-0.371,3.135-0.605
		c0.007-0.241,0.01-0.394,0.01-0.459c0-0.716-0.166-1.221-0.498-1.514c-0.449-0.397-1.116-0.596-2.002-0.596
		c-0.827,0-1.437,0.145-1.831,0.435s-0.686,0.803-0.874,1.538l-1.719-0.234c0.156-0.735,0.413-1.33,0.771-1.782
		s0.876-0.801,1.553-1.045s1.462-0.366,2.354-0.366c0.886,0,1.604,0.104,2.158,0.313s0.96,0.471,1.221,0.786
		s0.442,0.715,0.547,1.196c0.059,0.3,0.088,0.84,0.088,1.621v2.344c0,1.634,0.038,2.668,0.112,3.101s0.223,0.848,0.444,1.245h-1.836
		C276.195,55.8,276.078,55.374,276.026,54.885z M275.88,50.959c-0.638,0.261-1.595,0.481-2.871,0.664
		c-0.723,0.104-1.233,0.222-1.533,0.352s-0.53,0.32-0.693,0.571s-0.244,0.529-0.244,0.835c0,0.469,0.177,0.859,0.532,1.172
		s0.874,0.469,1.558,0.469c0.677,0,1.279-0.148,1.807-0.444s0.915-0.701,1.162-1.216c0.188-0.397,0.283-0.983,0.283-1.758V50.959z"
		/>
	<path fill="#00ABD6" d="M280.362,56.165V45.793h1.582v1.572c0.403-0.735,0.776-1.221,1.118-1.455s0.718-0.352,1.128-0.352
		c0.593,0,1.194,0.188,1.807,0.566l-0.605,1.631c-0.43-0.254-0.859-0.381-1.289-0.381c-0.384,0-0.729,0.115-1.035,0.347
		s-0.524,0.552-0.654,0.962c-0.195,0.625-0.293,1.309-0.293,2.051v5.43H280.362z"/>
	<path fill="#00ABD6" d="M294.142,52.825l1.816,0.225c-0.286,1.062-0.817,1.885-1.592,2.471s-1.765,0.879-2.969,0.879
		c-1.517,0-2.72-0.467-3.608-1.401s-1.333-2.244-1.333-3.931c0-1.745,0.449-3.099,1.348-4.063s2.063-1.445,3.496-1.445
		c1.387,0,2.52,0.472,3.398,1.416s1.318,2.272,1.318,3.984c0,0.104-0.003,0.261-0.01,0.469h-7.734
		c0.065,1.14,0.388,2.012,0.967,2.617s1.302,0.908,2.168,0.908c0.645,0,1.194-0.169,1.65-0.508S293.875,53.567,294.142,52.825z
		 M288.37,49.983h5.791c-0.078-0.872-0.3-1.526-0.664-1.963c-0.56-0.677-1.286-1.016-2.178-1.016c-0.808,0-1.485,0.271-2.036,0.811
		S288.429,49.078,288.37,49.983z"/>
</g>
<path fill="#00ABD6" d="M71.089,102.336c-1.771,0.295-3.588,0.447-5.445,0.447c-18.11-0.033-32.754-14.678-32.786-32.781
	c0-5.297,1.263-10.275,3.484-14.693c4.926,4.584,9.802,9.121,10.883,10.123c2.184,2.025,3.652,0.52,3.595-0.977
	c-0.057-1.5,3.14-22.484,3.083-23.99c-0.032-1.189-0.285-2.305-1.171-3.141c-0.904-0.834-2.038-0.998-3.222-0.961
	c-0.69,0.025-23.22,4.791-23.72,4.799c-1.487,0.063-2.975,1.557-0.703,3.67c0.913,0.852,4.324,4.027,8.216,7.65
	c-2.83,5.205-4.447,11.178-4.447,17.52c0.002,20.314,16.468,36.779,36.787,36.781c2.077,0,4.117-0.172,6.104-0.502
	c1.089-0.184,1.826-1.213,1.644-2.303C73.209,102.889,72.178,102.152,71.089,102.336z M106.198,95.17
	c-0.913-0.852-4.325-4.029-8.218-7.652c2.829-5.205,4.445-11.174,4.446-17.516l0,0V70l0,0l0,0
	c-0.005-20.318-16.47-36.783-36.784-36.783c-1.683,0-3.336,0.113-4.953,0.334c-1.095,0.148-1.862,1.156-1.714,2.25
	c0.15,1.096,1.157,1.863,2.252,1.715c1.442-0.195,2.916-0.299,4.415-0.301c18.105,0.033,32.75,14.678,32.783,32.787
	c0,0.004,0.001,0.01,0.001,0.014c-0.004,5.289-1.266,10.263-3.484,14.675c-4.926-4.584-9.801-9.119-10.882-10.121
	c-2.184-2.024-3.652-0.52-3.595,0.976c0.057,1.5-3.14,22.483-3.083,23.992c0.032,1.188,0.285,2.303,1.171,3.14
	c0.904,0.836,2.038,1,3.222,0.963c0.69-0.025,23.22-4.793,23.72-4.8C106.982,98.777,108.47,97.281,106.198,95.17z"/>
</svg>
