<?xml version="1.0" encoding="utf-8"?>
<!-- Generator: Adobe Illustrator 15.0.0, SVG Export Plug-In . SVG Version: 6.00 Build 0)  -->
<!DOCTYPE svg PUBLIC "-//W3C//DTD SVG 1.1//EN" "http://www.w3.org/Graphics/SVG/1.1/DTD/svg11.dtd">
<svg version="1.1" id="Layer_1" xmlns="http://www.w3.org/2000/svg" xmlns:xlink="http://www.w3.org/1999/xlink" x="0px" y="0px"
	 width="16px" height="16px" viewBox="0 0 16 16" enable-background="new 0 0 16 16" xml:space="preserve">
<g>
	
		<path fill="none" stroke="#FFFFFF" stroke-width="1.4926" stroke-linecap="round" stroke-linejoin="round" stroke-miterlimit="10" d="
		M8.624,2.216V1.313c0,0-3.145,2.144-3.649,2.517C4.22,4.386,4.258,4.876,4.258,5.254"/>
	<path fill="#FFFFFF" d="M12.018,1.865c-0.215-0.104-0.469-0.077-0.658,0.069c-0.984,0.77-3.678,2.85-4.304,3.226
		c-0.845,0.506-1.701,0.628-2.02,0.337C4.933,5.403,4.882,5.26,4.882,5.071c0-0.345-0.279-0.625-0.624-0.625
		c-0.346,0-0.625,0.279-0.625,0.625v7.742c0,1.173,1.344,1.875,2.64,1.875c0.546,0,1.04-0.125,1.429-0.361
		c0.737-0.448,4.375-3.273,4.375-3.273c0.181-0.114,0.291-0.313,0.291-0.527v-8.1C12.367,2.187,12.232,1.97,12.018,1.865z
		 M11.12,6.454L8.001,8.873V7.626l3.119-2.42V6.454z"/>
</g>
</svg>
