<?xml version="1.0" encoding="utf-8"?>
<!-- Generator: Adobe Illustrator 15.0.0, SVG Export Plug-In . SVG Version: 6.00 Build 0)  -->
<!DOCTYPE svg PUBLIC "-//W3C//DTD SVG 1.1//EN" "http://www.w3.org/Graphics/SVG/1.1/DTD/svg11.dtd">
<svg version="1.1" id="Layer_1" xmlns="http://www.w3.org/2000/svg" xmlns:xlink="http://www.w3.org/1999/xlink" x="0px" y="0px"
	 width="200px" height="150px" viewBox="0 0 200 150" enable-background="new 0 0 200 150" xml:space="preserve">
<path fill="#FFFFFF" d="M181.402,43.839c-2.359,0-4.27,1.91-4.27,4.273c-0.004,22.506-0.004,51.717,0,56.609
	c-0.021,1.941-0.809,3.568-2.652,5.258c-1.83,1.652-4.725,3.084-8.105,3.848c-3.615,0.824-11.473,1.988-19.773,3.809
	c-8.354,1.857-17.223,4.289-23.828,8.32c-5.516,3.186-8.898,6.461-11.793,8.418c-2.926,1.938-5.158,3.01-10.543,3.076
	c-0.111,0-0.213,0.025-0.321,0.033c-0.088-0.006-0.171-0.027-0.261-0.027v-0.006c-5.388-0.066-7.623-1.141-10.55-3.078
	c-2.892-1.957-6.271-5.232-11.899-8.484c-6.494-3.961-15.366-6.396-23.716-8.252c-8.303-1.822-16.163-2.98-19.776-3.811
	c-3.384-0.766-6.275-2.195-8.105-3.842c-1.848-1.693-2.634-3.324-2.656-5.262c0-7.736,0-76.43,0-82.98
	c0-3.189,0.316-5.141,1.676-6.459c1.332-1.426,5.281-3.336,14.653-3.314c13.05-0.01,27.917,2.465,39.195,6.143
	c5.631,1.822,10.376,3.973,13.414,6.041c1.524,1.021,2.594,2.025,3.163,2.777c0.573,0.768,0.619,1.15,0.617,1.279l-0.002,0.014
	v83.064c0,2.359,1.916,4.273,4.276,4.273c2.355,0,4.269-1.914,4.269-4.273V28.222c-0.004-0.133,0.037-0.516,0.621-1.291
	c1.955-2.885,10.404-7.332,20.963-10.139c10.582-2.941,23.393-4.828,34.814-4.824c9.365-0.021,13.318,1.889,14.645,3.313
	c1.359,1.326,1.676,3.271,1.676,6.461c0,1.088,0,3.904,0,7.875c0,2.355,1.91,4.271,4.27,4.271c2.361,0,4.275-1.916,4.275-4.271
	h-0.006c0-3.971,0-6.787,0-7.875c0-3.365-0.148-8.438-4.178-12.5c-4.049-3.957-10.395-5.787-20.682-5.813
	c-14.107,0.008-29.57,2.584-41.838,6.559c-6.139,2.008-11.471,4.334-15.566,7.09c-1.16,0.807-2.266,1.672-3.268,2.605
	c-1-0.934-2.104-1.799-3.267-2.605C84.726,9.022,60.691,3.532,39.481,3.427C29.189,3.454,22.84,5.288,18.79,9.241
	c-4.023,4.064-4.174,9.137-4.178,12.5c0,6.551,0,75.24,0.004,82.98c-0.023,4.695,2.283,8.797,5.502,11.631
	c2.175,1.928,4.779,3.375,7.608,4.457v17.117c0,4.582,3.707,8.293,8.289,8.293h130.68c4.582,0,8.299-3.711,8.299-8.293v-18.15
	c1.885-0.936,3.641-2.061,5.174-3.424c3.225-2.834,5.525-6.939,5.504-11.631c-0.004-4.893-0.004-34.107,0-56.609
	C185.672,45.749,183.758,43.839,181.402,43.839z"/>
</svg>
