<?xml version="1.0" encoding="utf-8"?>
<!-- Generator: Adobe Illustrator 15.0.0, SVG Export Plug-In . SVG Version: 6.00 Build 0)  -->
<!DOCTYPE svg PUBLIC "-//W3C//DTD SVG 1.1//EN" "http://www.w3.org/Graphics/SVG/1.1/DTD/svg11.dtd">
<svg version="1.1" id="Layer_1" xmlns="http://www.w3.org/2000/svg" xmlns:xlink="http://www.w3.org/1999/xlink" x="0px" y="0px"
	 width="340px" height="140px" viewBox="0 0 340 140" enable-background="new 0 0 340 140" xml:space="preserve">
<rect fill="#FFFFFF" width="340" height="140"/>
<g enable-background="new    ">
	<path fill="#5F5B5A" d="M149.888,30.415v-8.59h1.711l2.033,6.082c0.188,0.566,0.324,0.99,0.41,1.271
		c0.098-0.313,0.25-0.771,0.457-1.377l2.057-5.977h1.529v8.59h-1.096v-7.189l-2.496,7.189h-1.025l-2.484-7.313v7.313H149.888z"/>
	<path fill="#5F5B5A" d="M163.845,29.647c-0.391,0.332-0.767,0.566-1.128,0.703s-0.749,0.205-1.163,0.205
		c-0.684,0-1.209-0.167-1.576-0.501s-0.551-0.761-0.551-1.28c0-0.305,0.069-0.583,0.208-0.835s0.32-0.454,0.545-0.606
		s0.478-0.268,0.759-0.346c0.207-0.055,0.52-0.107,0.938-0.158c0.852-0.102,1.479-0.223,1.881-0.363
		c0.004-0.145,0.006-0.236,0.006-0.275c0-0.43-0.1-0.732-0.299-0.908c-0.27-0.238-0.67-0.357-1.201-0.357
		c-0.496,0-0.862,0.087-1.099,0.261s-0.411,0.481-0.524,0.923l-1.031-0.141c0.094-0.441,0.248-0.798,0.463-1.069
		s0.525-0.48,0.932-0.627s0.877-0.22,1.412-0.22c0.531,0,0.963,0.063,1.295,0.188s0.576,0.282,0.732,0.472s0.266,0.429,0.328,0.718
		c0.035,0.18,0.053,0.504,0.053,0.973v1.406c0,0.98,0.022,1.601,0.067,1.86s0.134,0.509,0.267,0.747h-1.102
		C163.946,30.196,163.876,29.94,163.845,29.647z M163.757,27.292c-0.383,0.156-0.957,0.289-1.723,0.398
		c-0.434,0.063-0.74,0.133-0.92,0.211s-0.318,0.192-0.416,0.343s-0.146,0.317-0.146,0.501c0,0.281,0.106,0.516,0.319,0.703
		s0.524,0.281,0.935,0.281c0.406,0,0.768-0.089,1.084-0.267s0.549-0.421,0.697-0.729c0.113-0.238,0.17-0.59,0.17-1.055V27.292z"/>
	<path fill="#5F5B5A" d="M166.464,23.038v-1.213h1.055v1.213H166.464z M166.464,30.415v-6.223h1.055v6.223H166.464z"/>
	<path fill="#5F5B5A" d="M169.124,30.415v-6.223h0.949v0.885c0.457-0.684,1.117-1.025,1.98-1.025c0.375,0,0.72,0.067,1.034,0.202
		s0.55,0.312,0.706,0.53s0.266,0.479,0.328,0.779c0.039,0.195,0.059,0.537,0.059,1.025v3.826h-1.055v-3.785
		c0-0.43-0.041-0.751-0.123-0.964s-0.228-0.383-0.437-0.51s-0.454-0.19-0.735-0.19c-0.449,0-0.837,0.143-1.163,0.428
		s-0.489,0.826-0.489,1.623v3.398H169.124z"/>
	<path fill="#5F5B5A" d="M181.235,30.415v-7.576h-2.83v-1.014h6.809v1.014h-2.842v7.576H181.235z"/>
	<path fill="#5F5B5A" d="M188.976,29.647c-0.391,0.332-0.767,0.566-1.128,0.703s-0.749,0.205-1.163,0.205
		c-0.684,0-1.209-0.167-1.576-0.501s-0.551-0.761-0.551-1.28c0-0.305,0.069-0.583,0.208-0.835s0.32-0.454,0.545-0.606
		s0.478-0.268,0.759-0.346c0.207-0.055,0.52-0.107,0.938-0.158c0.852-0.102,1.479-0.223,1.881-0.363
		c0.004-0.145,0.006-0.236,0.006-0.275c0-0.43-0.1-0.732-0.299-0.908c-0.27-0.238-0.67-0.357-1.201-0.357
		c-0.496,0-0.862,0.087-1.099,0.261s-0.411,0.481-0.524,0.923l-1.031-0.141c0.094-0.441,0.248-0.798,0.463-1.069
		s0.525-0.48,0.932-0.627s0.877-0.22,1.412-0.22c0.531,0,0.963,0.063,1.295,0.188s0.576,0.282,0.732,0.472s0.266,0.429,0.328,0.718
		c0.035,0.18,0.053,0.504,0.053,0.973v1.406c0,0.98,0.022,1.601,0.067,1.86s0.134,0.509,0.267,0.747h-1.102
		C189.077,30.196,189.007,29.94,188.976,29.647z M188.888,27.292c-0.383,0.156-0.957,0.289-1.723,0.398
		c-0.434,0.063-0.74,0.133-0.92,0.211s-0.318,0.192-0.416,0.343s-0.146,0.317-0.146,0.501c0,0.281,0.106,0.516,0.319,0.703
		s0.524,0.281,0.935,0.281c0.406,0,0.768-0.089,1.084-0.267s0.549-0.421,0.697-0.729c0.113-0.238,0.17-0.59,0.17-1.055V27.292z"/>
	<path fill="#5F5B5A" d="M191.167,28.557l1.043-0.164c0.059,0.418,0.222,0.738,0.489,0.961s0.642,0.334,1.122,0.334
		c0.484,0,0.844-0.099,1.078-0.296s0.352-0.429,0.352-0.694c0-0.238-0.104-0.426-0.311-0.563c-0.145-0.094-0.504-0.213-1.078-0.357
		c-0.773-0.195-1.31-0.364-1.608-0.507s-0.525-0.34-0.68-0.592s-0.231-0.53-0.231-0.835c0-0.277,0.063-0.534,0.19-0.771
		s0.3-0.433,0.519-0.589c0.164-0.121,0.388-0.224,0.671-0.308s0.587-0.126,0.911-0.126c0.488,0,0.917,0.07,1.286,0.211
		s0.642,0.331,0.817,0.571s0.297,0.562,0.363,0.964l-1.031,0.141c-0.047-0.32-0.183-0.57-0.407-0.75s-0.542-0.27-0.952-0.27
		c-0.484,0-0.83,0.08-1.037,0.24s-0.311,0.348-0.311,0.563c0,0.137,0.043,0.26,0.129,0.369c0.086,0.113,0.221,0.207,0.404,0.281
		c0.105,0.039,0.416,0.129,0.932,0.27c0.746,0.199,1.267,0.362,1.562,0.489s0.526,0.312,0.694,0.554s0.252,0.543,0.252,0.902
		c0,0.352-0.103,0.683-0.308,0.993s-0.501,0.551-0.888,0.721s-0.824,0.255-1.313,0.255c-0.809,0-1.425-0.168-1.849-0.504
		S191.284,29.217,191.167,28.557z"/>
	<path fill="#5F5B5A" d="M197.595,30.415v-8.59h1.055v4.898l2.496-2.531h1.365l-2.379,2.309l2.619,3.914h-1.301l-2.057-3.182
		l-0.744,0.715v2.467H197.595z"/>
	<path fill="#5F5B5A" d="M203.167,28.557l1.043-0.164c0.059,0.418,0.222,0.738,0.489,0.961s0.642,0.334,1.122,0.334
		c0.484,0,0.844-0.099,1.078-0.296s0.352-0.429,0.352-0.694c0-0.238-0.104-0.426-0.311-0.563c-0.145-0.094-0.504-0.213-1.078-0.357
		c-0.773-0.195-1.31-0.364-1.608-0.507s-0.525-0.34-0.68-0.592s-0.231-0.53-0.231-0.835c0-0.277,0.063-0.534,0.19-0.771
		s0.3-0.433,0.519-0.589c0.164-0.121,0.388-0.224,0.671-0.308s0.587-0.126,0.911-0.126c0.488,0,0.917,0.07,1.286,0.211
		s0.642,0.331,0.817,0.571s0.297,0.562,0.363,0.964l-1.031,0.141c-0.047-0.32-0.183-0.57-0.407-0.75s-0.542-0.27-0.952-0.27
		c-0.484,0-0.83,0.08-1.037,0.24s-0.311,0.348-0.311,0.563c0,0.137,0.043,0.26,0.129,0.369c0.086,0.113,0.221,0.207,0.404,0.281
		c0.105,0.039,0.416,0.129,0.932,0.27c0.746,0.199,1.267,0.362,1.562,0.489s0.526,0.312,0.694,0.554s0.252,0.543,0.252,0.902
		c0,0.352-0.103,0.683-0.308,0.993s-0.501,0.551-0.888,0.721s-0.824,0.255-1.313,0.255c-0.809,0-1.425-0.168-1.849-0.504
		S203.284,29.217,203.167,28.557z"/>
</g>
<rect x="148.997" y="41.844" fill="none" width="171.681" height="72.369"/>
<g enable-background="new    ">
	<path fill="#00ABD6" d="M154.632,56.165l-5.547-14.316h2.051l3.721,10.4c0.299,0.833,0.55,1.614,0.752,2.344
		c0.221-0.781,0.479-1.563,0.771-2.344l3.867-10.4h1.934l-5.605,14.316H154.632z"/>
	<path fill="#00ABD6" d="M163.304,43.87v-2.021h1.758v2.021H163.304z M163.304,56.165V45.793h1.758v10.371H163.304z"/>
	<path fill="#00ABD6" d="M174.837,52.825l1.816,0.225c-0.286,1.062-0.817,1.885-1.592,2.471s-1.765,0.879-2.969,0.879
		c-1.517,0-2.72-0.467-3.608-1.401s-1.333-2.244-1.333-3.931c0-1.745,0.449-3.099,1.348-4.063s2.063-1.445,3.496-1.445
		c1.387,0,2.52,0.472,3.398,1.416s1.318,2.272,1.318,3.984c0,0.104-0.003,0.261-0.01,0.469h-7.734
		c0.065,1.14,0.387,2.012,0.967,2.617c0.579,0.605,1.302,0.908,2.168,0.908c0.645,0,1.194-0.169,1.65-0.508
		S174.57,53.567,174.837,52.825z M169.065,49.983h5.791c-0.078-0.872-0.3-1.526-0.664-1.963c-0.56-0.677-1.286-1.016-2.178-1.016
		c-0.808,0-1.485,0.271-2.036,0.811C169.428,48.355,169.124,49.078,169.065,49.983z"/>
	<path fill="#00ABD6" d="M180.774,56.165l-3.174-10.371h1.816l1.65,5.986l0.615,2.227c0.026-0.11,0.205-0.823,0.537-2.139
		l1.65-6.074h1.807l1.553,6.016l0.518,1.982l0.596-2.002l1.777-5.996h1.709l-3.242,10.371h-1.826l-1.65-6.211l-0.4-1.768l-2.1,7.979
		H180.774z"/>
	<path fill="#00ABD6" d="M205.628,54.885c-0.651,0.554-1.278,0.944-1.88,1.172s-1.248,0.342-1.938,0.342
		c-1.14,0-2.015-0.278-2.627-0.835s-0.918-1.268-0.918-2.134c0-0.508,0.116-0.972,0.347-1.392s0.533-0.757,0.908-1.011
		s0.796-0.446,1.265-0.576c0.345-0.091,0.866-0.179,1.563-0.264c1.419-0.169,2.464-0.371,3.135-0.605
		c0.007-0.241,0.01-0.394,0.01-0.459c0-0.716-0.166-1.221-0.498-1.514c-0.449-0.397-1.116-0.596-2.002-0.596
		c-0.827,0-1.437,0.145-1.831,0.435s-0.686,0.803-0.874,1.538l-1.719-0.234c0.156-0.735,0.413-1.33,0.771-1.782
		s0.876-0.801,1.553-1.045s1.462-0.366,2.354-0.366c0.886,0,1.604,0.104,2.158,0.313s0.96,0.471,1.221,0.786
		s0.442,0.715,0.547,1.196c0.059,0.3,0.088,0.84,0.088,1.621v2.344c0,1.634,0.038,2.668,0.112,3.101s0.223,0.848,0.444,1.245h-1.836
		C205.797,55.8,205.68,55.374,205.628,54.885z M205.481,50.959c-0.638,0.261-1.595,0.481-2.871,0.664
		c-0.723,0.104-1.233,0.222-1.533,0.352s-0.53,0.32-0.693,0.571s-0.244,0.529-0.244,0.835c0,0.469,0.177,0.859,0.532,1.172
		s0.874,0.469,1.558,0.469c0.677,0,1.279-0.148,1.807-0.444s0.915-0.701,1.162-1.216c0.188-0.397,0.283-0.983,0.283-1.758V50.959z"
		/>
	<path fill="#00ABD6" d="M209.983,56.165V45.793h1.582v1.475c0.762-1.14,1.862-1.709,3.301-1.709c0.625,0,1.2,0.112,1.724,0.337
		s0.916,0.52,1.177,0.884s0.442,0.798,0.547,1.299c0.065,0.325,0.098,0.896,0.098,1.709v6.377h-1.758v-6.309
		c0-0.716-0.068-1.252-0.205-1.606s-0.38-0.638-0.728-0.85s-0.757-0.317-1.226-0.317c-0.749,0-1.396,0.237-1.938,0.713
		s-0.815,1.377-0.815,2.705v5.664H209.983z"/>
	<path fill="#00ABD6" d="M227.835,56.165v-1.309c-0.657,1.028-1.624,1.543-2.9,1.543c-0.827,0-1.587-0.228-2.28-0.684
		s-1.23-1.092-1.611-1.909s-0.571-1.756-0.571-2.817c0-1.035,0.173-1.975,0.518-2.817s0.862-1.489,1.553-1.938
		s1.462-0.674,2.314-0.674c0.625,0,1.182,0.132,1.67,0.396s0.886,0.607,1.191,1.03v-5.137h1.748v14.316H227.835z M222.278,50.989
		c0,1.328,0.28,2.321,0.84,2.979s1.221,0.986,1.982,0.986c0.769,0,1.421-0.314,1.958-0.942s0.806-1.587,0.806-2.876
		c0-1.419-0.273-2.461-0.82-3.125s-1.221-0.996-2.021-0.996c-0.781,0-1.435,0.319-1.958,0.957S222.278,49.615,222.278,50.989z"/>
	<path fill="#00ABD6" d="M238.05,56.165V41.848h10.352v1.689h-8.457v4.385h7.92v1.68h-7.92v4.873h8.789v1.689H238.05z"/>
	<path fill="#00ABD6" d="M249.954,56.165l3.789-5.391l-3.506-4.98h2.197l1.592,2.432c0.3,0.462,0.54,0.85,0.723,1.162
		c0.286-0.43,0.55-0.811,0.791-1.143l1.748-2.451h2.1l-3.584,4.883l3.857,5.488h-2.158l-2.129-3.223l-0.566-0.869l-2.725,4.092
		H249.954z"/>
	<path fill="#00ABD6" d="M261.126,60.139V45.793h1.602v1.348c0.378-0.527,0.804-0.923,1.279-1.187s1.052-0.396,1.729-0.396
		c0.886,0,1.667,0.228,2.344,0.684s1.188,1.099,1.533,1.929s0.518,1.74,0.518,2.729c0,1.062-0.19,2.017-0.571,2.866
		s-0.934,1.501-1.66,1.953s-1.489,0.679-2.29,0.679c-0.586,0-1.112-0.124-1.577-0.371s-0.848-0.56-1.147-0.938v5.049H261.126z
		 M262.718,51.038c0,1.335,0.271,2.321,0.811,2.959s1.194,0.957,1.963,0.957c0.781,0,1.45-0.33,2.007-0.991s0.835-1.685,0.835-3.071
		c0-1.321-0.272-2.312-0.815-2.969s-1.193-0.986-1.948-0.986c-0.749,0-1.411,0.35-1.987,1.05S262.718,49.703,262.718,51.038z"/>
	<path fill="#00ABD6" d="M271.595,50.979c0-1.921,0.534-3.343,1.602-4.268c0.892-0.769,1.979-1.152,3.262-1.152
		c1.426,0,2.591,0.467,3.496,1.401s1.357,2.225,1.357,3.872c0,1.335-0.2,2.385-0.601,3.149s-0.982,1.359-1.748,1.782
		s-1.6,0.635-2.505,0.635c-1.452,0-2.626-0.466-3.521-1.396S271.595,52.73,271.595,50.979z M273.401,50.979
		c0,1.328,0.29,2.322,0.869,2.983s1.309,0.991,2.188,0.991c0.872,0,1.599-0.332,2.178-0.996s0.869-1.677,0.869-3.037
		c0-1.282-0.292-2.254-0.874-2.915s-1.307-0.991-2.173-0.991c-0.879,0-1.608,0.329-2.188,0.986S273.401,49.651,273.401,50.979z"/>
	<path fill="#00ABD6" d="M283.353,56.165V45.793h1.582v1.572c0.403-0.735,0.776-1.221,1.118-1.455s0.718-0.352,1.128-0.352
		c0.593,0,1.194,0.188,1.807,0.566l-0.605,1.631c-0.43-0.254-0.859-0.381-1.289-0.381c-0.384,0-0.729,0.115-1.035,0.347
		s-0.524,0.552-0.654,0.962c-0.195,0.625-0.293,1.309-0.293,2.051v5.43H283.353z"/>
	<path fill="#00ABD6" d="M293.87,54.592l0.254,1.553c-0.495,0.104-0.938,0.156-1.328,0.156c-0.638,0-1.133-0.101-1.484-0.303
		s-0.599-0.467-0.742-0.796s-0.215-1.021-0.215-2.075v-5.967h-1.289v-1.367h1.289v-2.568l1.748-1.055v3.623h1.768v1.367h-1.768
		v6.064c0,0.501,0.03,0.823,0.093,0.967s0.162,0.257,0.303,0.342s0.34,0.127,0.601,0.127
		C293.294,54.661,293.551,54.638,293.87,54.592z"/>
	<path fill="#00ABD6" d="M149.896,75.564l1.787-0.156c0.084,0.717,0.282,1.305,0.591,1.764s0.79,0.83,1.44,1.113
		s1.383,0.424,2.197,0.424c0.723,0,1.361-0.107,1.914-0.322s0.965-0.51,1.235-0.883c0.27-0.375,0.405-0.783,0.405-1.227
		c0-0.449-0.13-0.842-0.391-1.176c-0.26-0.336-0.69-0.617-1.289-0.846c-0.384-0.148-1.234-0.383-2.549-0.697
		c-1.315-0.316-2.236-0.613-2.764-0.895c-0.684-0.357-1.193-0.803-1.528-1.332c-0.335-0.531-0.503-1.125-0.503-1.783
		c0-0.723,0.205-1.398,0.615-2.026s1.009-1.105,1.797-1.431s1.664-0.488,2.627-0.488c1.061,0,1.997,0.171,2.808,0.513
		s1.434,0.845,1.87,1.509s0.67,1.416,0.703,2.256l-1.816,0.137c-0.098-0.905-0.428-1.589-0.991-2.051s-1.395-0.693-2.495-0.693
		c-1.146,0-1.981,0.21-2.505,0.63s-0.786,0.926-0.786,1.519c0,0.515,0.186,0.938,0.557,1.269c0.365,0.332,1.317,0.672,2.856,1.021
		c1.54,0.348,2.596,0.652,3.169,0.912c0.833,0.385,1.449,0.871,1.846,1.461c0.397,0.588,0.596,1.268,0.596,2.035
		c0,0.762-0.218,1.48-0.654,2.154s-1.063,1.197-1.88,1.572c-0.817,0.373-1.737,0.561-2.759,0.561c-1.295,0-2.381-0.188-3.257-0.566
		c-0.875-0.377-1.563-0.945-2.061-1.703C150.184,77.379,149.921,76.521,149.896,75.564z"/>
	<path fill="#00ABD6" d="M166.38,80.164l-3.799-14.316h1.943l2.178,9.384c0.234,0.984,0.436,1.961,0.605,2.93
		c0.365-1.529,0.58-2.412,0.645-2.646l2.725-9.667h2.285l2.051,7.246c0.515,1.797,0.886,3.486,1.113,5.068
		c0.183-0.904,0.42-1.943,0.713-3.115l2.246-9.199h1.904l-3.926,14.316h-1.826l-3.018-10.908c-0.254-0.911-0.403-1.472-0.449-1.68
		c-0.149,0.657-0.29,1.218-0.42,1.68l-3.037,10.908H166.38z"/>
	<path fill="#00ABD6" d="M188.636,80.164V65.848h1.895v14.316H188.636z"/>
	<path fill="#00ABD6" d="M193.646,80.164V69.793h1.582v1.474c0.762-1.139,1.862-1.708,3.301-1.708c0.625,0,1.2,0.112,1.724,0.337
		s0.916,0.52,1.177,0.883c0.261,0.365,0.442,0.799,0.547,1.299c0.065,0.326,0.098,0.896,0.098,1.709v6.377h-1.758v-6.309
		c0-0.715-0.068-1.252-0.205-1.605c-0.137-0.355-0.38-0.639-0.728-0.85c-0.348-0.213-0.757-0.318-1.226-0.318
		c-0.749,0-1.396,0.238-1.938,0.713c-0.543,0.477-0.815,1.377-0.815,2.705v5.664H193.646z"/>
	<path fill="#00ABD6" d="M207.649,80.164l-3.945-10.371h1.855l2.227,6.21c0.241,0.672,0.462,1.367,0.664,2.09
		c0.156-0.547,0.374-1.203,0.654-1.973l2.305-6.328h1.807l-3.926,10.371H207.649z"/>
	<path fill="#00ABD6" d="M221.868,76.824l1.816,0.225c-0.286,1.063-0.817,1.885-1.592,2.471s-1.765,0.879-2.969,0.879
		c-1.517,0-2.72-0.467-3.608-1.4c-0.889-0.936-1.333-2.244-1.333-3.932c0-1.744,0.449-3.098,1.348-4.063
		c0.898-0.963,2.063-1.445,3.496-1.445c1.387,0,2.52,0.472,3.398,1.416c0.879,0.945,1.318,2.273,1.318,3.984
		c0,0.105-0.003,0.262-0.01,0.469h-7.734c0.065,1.141,0.388,2.012,0.967,2.617s1.302,0.908,2.168,0.908
		c0.645,0,1.194-0.168,1.65-0.508C221.24,78.107,221.602,77.566,221.868,76.824z M216.097,73.982h5.791
		c-0.078-0.871-0.3-1.525-0.664-1.963c-0.56-0.676-1.286-1.016-2.178-1.016c-0.808,0-1.485,0.271-2.036,0.811
		C216.459,72.355,216.155,73.078,216.097,73.982z"/>
	<path fill="#00ABD6" d="M225.892,80.164V69.793h1.582v1.474c0.762-1.139,1.862-1.708,3.301-1.708c0.625,0,1.2,0.112,1.724,0.337
		s0.916,0.52,1.177,0.883c0.261,0.365,0.442,0.799,0.547,1.299c0.065,0.326,0.098,0.896,0.098,1.709v6.377h-1.758v-6.309
		c0-0.715-0.068-1.252-0.205-1.605c-0.137-0.355-0.38-0.639-0.728-0.85c-0.348-0.213-0.757-0.318-1.226-0.318
		c-0.749,0-1.396,0.238-1.938,0.713c-0.543,0.477-0.815,1.377-0.815,2.705v5.664H225.892z"/>
	<path fill="#00ABD6" d="M240.853,78.592l0.254,1.553c-0.495,0.105-0.938,0.156-1.328,0.156c-0.638,0-1.133-0.1-1.484-0.303
		c-0.352-0.201-0.599-0.467-0.742-0.795c-0.144-0.33-0.215-1.021-0.215-2.076V71.16h-1.289v-1.367h1.289v-2.568l1.748-1.055v3.623
		h1.768v1.367h-1.768v6.064c0,0.502,0.03,0.824,0.093,0.967c0.063,0.145,0.162,0.258,0.303,0.342
		c0.141,0.086,0.34,0.127,0.601,0.127C240.276,78.66,240.533,78.639,240.853,78.592z"/>
	<path fill="#00ABD6" d="M241.917,74.979c0-1.92,0.534-3.342,1.602-4.268c0.892-0.768,1.979-1.152,3.262-1.152
		c1.426,0,2.591,0.467,3.496,1.402c0.905,0.934,1.357,2.225,1.357,3.871c0,1.336-0.2,2.385-0.601,3.15
		c-0.4,0.764-0.982,1.359-1.748,1.781c-0.766,0.424-1.6,0.635-2.505,0.635c-1.452,0-2.626-0.465-3.521-1.396
		C242.365,78.072,241.917,76.73,241.917,74.979z M243.724,74.979c0,1.328,0.29,2.322,0.869,2.984c0.579,0.66,1.309,0.99,2.188,0.99
		c0.872,0,1.599-0.332,2.178-0.996s0.869-1.676,0.869-3.037c0-1.281-0.292-2.254-0.874-2.914c-0.582-0.662-1.307-0.992-2.173-0.992
		c-0.879,0-1.608,0.33-2.188,0.986C244.014,72.658,243.724,73.65,243.724,74.979z"/>
	<path fill="#00ABD6" d="M253.675,80.164V69.793h1.582v1.572c0.403-0.734,0.776-1.22,1.118-1.455s0.718-0.352,1.128-0.352
		c0.593,0,1.194,0.188,1.807,0.566l-0.605,1.63c-0.43-0.254-0.859-0.381-1.289-0.381c-0.384,0-0.729,0.115-1.035,0.348
		c-0.306,0.23-0.524,0.551-0.654,0.961c-0.195,0.625-0.293,1.309-0.293,2.051v5.43H253.675z"/>
	<path fill="#00ABD6" d="M260.276,84.158l-0.195-1.65c0.384,0.105,0.72,0.156,1.006,0.156c0.391,0,0.703-0.064,0.938-0.195
		c0.234-0.129,0.427-0.313,0.576-0.547c0.11-0.176,0.29-0.611,0.537-1.309c0.032-0.098,0.085-0.24,0.156-0.43l-3.936-10.39h1.895
		l2.158,6.005c0.28,0.762,0.53,1.563,0.752,2.402c0.202-0.807,0.442-1.594,0.723-2.363l2.217-6.044h1.758l-3.945,10.546
		c-0.423,1.141-0.752,1.924-0.986,2.354c-0.313,0.58-0.671,1.004-1.074,1.275c-0.403,0.27-0.886,0.404-1.445,0.404
		C261.07,84.373,260.693,84.303,260.276,84.158z"/>
</g>
<path fill="#87BD40" d="M129.997,63.416c-3.47-2.834-16.298-12.922-16.306-12.928c-0.005-0.004-1.167-0.916-2.87-2.254
	c-0.869-0.684-2.125-0.533-2.809,0.336c-0.683,0.867-0.533,2.125,0.337,2.809h-0.002c1.705,1.34,2.872,2.256,2.874,2.256
	c0.013,0.01,12.853,10.109,16.245,12.881c1.422,1.215,1.866,2.055,1.901,3.438c-0.035,1.385-0.478,2.219-1.901,3.437
	c-3.391,2.768-16.232,12.866-16.249,12.881c-0.003,0.002-11.201,8.711-15.086,11.965c-1.146,0.969-2.146,1.299-2.646,1.281
	c-0.441-0.033-0.576-0.076-0.923-0.521c-0.324-0.457-0.683-1.49-0.689-3.146c-0.013-1.176-0.019-2.899-0.022-4.899
	c-0.002-1.104-0.895-1.996-1.999-1.996H57.884c-1.106,0-2.001,0.896-2.001,2s0.895,2,2.001,2l29.974-0.002
	c0.004,1.155,0.01,2.157,0.017,2.932c0.022,2.16,0.432,3.955,1.387,5.369c0.913,1.396,2.523,2.267,4.13,2.267
	c0.031,0,0.063,0,0.095,0c1.86-0.017,3.592-0.869,5.214-2.217c3.748-3.14,14.969-11.867,14.983-11.88
	c0.017-0.012,12.845-10.104,16.314-12.935c2.001-1.582,3.407-3.854,3.372-6.532C133.404,67.273,132,64.998,129.997,63.416z
	 M91.853,49.053c0.002-2.041,0.01-3.801,0.021-4.996c0.008-1.643,0.374-2.625,0.694-3.059c0.342-0.42,0.51-0.484,0.985-0.514
	c0.539-0.016,1.521,0.311,2.598,1.201c1.28,1.051,3.485,2.809,5.828,4.664c0.864,0.686,2.122,0.539,2.809-0.324
	c0.688-0.867,0.54-2.125-0.324-2.811c-2.335-1.848-4.536-3.605-5.777-4.623c-1.573-1.279-3.295-2.094-5.133-2.107
	c-1.601-0.031-3.256,0.775-4.23,2.18c-0.99,1.393-1.427,3.189-1.449,5.361c-0.007,0.793-0.012,1.828-0.016,3.025H15.982
	c-1.106,0-2.002,0.895-2.002,2c0,1.104,0.896,2,2.002,2h73.872C90.959,51.051,91.853,50.156,91.853,49.053z M91.853,76.984
	c0-1.107-0.896-2.002-2-2.002H46.406c-1.104,0-1.998,0.895-1.998,2.002c0,1.104,0.894,1.998,1.998,1.998h43.446
	C90.957,78.982,91.853,78.088,91.853,76.984z M91.853,63.018c0-1.104-0.896-1.998-2-1.998H30.885c-1.104,0-2.001,0.895-2.001,1.998
	c0,1.105,0.896,2.002,2.001,2.002h58.968C90.957,65.02,91.853,64.123,91.853,63.018z"/>
</svg>
