<?xml version="1.0" encoding="utf-8"?>
<!-- Generator: Adobe Illustrator 15.0.0, SVG Export Plug-In . SVG Version: 6.00 Build 0)  -->
<!DOCTYPE svg PUBLIC "-//W3C//DTD SVG 1.1//EN" "http://www.w3.org/Graphics/SVG/1.1/DTD/svg11.dtd">
<svg version="1.1" id="Layer_1" xmlns="http://www.w3.org/2000/svg" xmlns:xlink="http://www.w3.org/1999/xlink" x="0px" y="0px"
	 width="16px" height="16px" viewBox="0 0 16 16" enable-background="new 0 0 16 16" xml:space="preserve">
<g>
	<rect fill="none" width="16" height="16"/>
	<rect fill="none" width="16" height="16"/>
	<g>
		<path fill="#333333" d="M11.029,10.904c0.045-0.107,0.02-0.234-0.064-0.316L8.219,7.5c-0.113-0.113-0.299-0.113-0.412,0
			l-2.771,3.088c-0.057,0.055-0.086,0.129-0.086,0.205c0,0.037,0.008,0.076,0.022,0.111c0.045,0.107,0.15,0.174,0.269,0.174h1.521
			c0,2.574-0.441,3.977-3.377,4.828c4.914,0,5.877-2.844,5.877-4.828h1.498C10.877,11.078,10.984,11.012,11.029,10.904z"/>
	</g>
	<path fill="#333333" d="M14.154,0H1.846C0.827,0,0,0.826,0,1.846v9.848c0,1.02,0.827,1.846,1.846,1.846h3.077v-1.23H1.846
		c-0.339,0-0.615-0.277-0.615-0.615V4.309H14.77v7.385c0,0.338-0.277,0.615-0.615,0.615h-3.693v1.23h3.693
		c1.02,0,1.846-0.826,1.846-1.846V1.846C16,0.826,15.174,0,14.154,0z M2.51,2.684c0,0.244-0.198,0.441-0.443,0.441H1.625
		c-0.245,0-0.442-0.197-0.442-0.441V2.24c0-0.244,0.197-0.441,0.442-0.441h0.442c0.245,0,0.443,0.197,0.443,0.441V2.684z
		 M4.355,2.684c0,0.244-0.197,0.441-0.442,0.441H3.471c-0.244,0-0.442-0.197-0.442-0.441V2.24c0-0.244,0.198-0.441,0.442-0.441
		h0.442c0.245,0,0.442,0.197,0.442,0.441V2.684z M14.77,3.078H4.923V1.846h9.847V3.078z"/>
</g>
</svg>
