<?xml version="1.0" encoding="utf-8"?>
<!-- Generator: Adobe Illustrator 15.0.0, SVG Export Plug-In . SVG Version: 6.00 Build 0)  -->
<!DOCTYPE svg PUBLIC "-//W3C//DTD SVG 1.1//EN" "http://www.w3.org/Graphics/SVG/1.1/DTD/svg11.dtd">
<svg version="1.1" id="Layer_1" xmlns="http://www.w3.org/2000/svg" xmlns:xlink="http://www.w3.org/1999/xlink" x="0px" y="0px"
	 width="16px" height="16px" viewBox="0 0 16 16" enable-background="new 0 0 16 16" xml:space="preserve">
<g>
	<rect fill="none" width="16" height="16"/>
	<path fill="none" stroke="#333333" stroke-width="1.2308" stroke-miterlimit="10" d="M12.912,5.539H3.065V1.846
		c0-0.68,0.551-1.23,1.23-1.23h7.386c0.68,0,1.23,0.551,1.23,1.23V5.539z"/>
	<path fill="none" stroke="#333333" stroke-width="1.2308" stroke-miterlimit="10" d="M3.065,8.615h9.847v5.539
		c0,0.68-0.551,1.23-1.23,1.23H4.296c-0.68,0-1.23-0.551-1.23-1.23V8.615z"/>
	
		<line fill="none" stroke="#333333" stroke-width="1.2308" stroke-miterlimit="10" x1="4.924" y1="11.078" x2="11.078" y2="11.078"/>
	<line fill="none" stroke="#333333" stroke-width="1.2308" stroke-miterlimit="10" x1="4.924" y1="12.924" x2="9.232" y2="12.924"/>
	<path fill="#333333" d="M14.154,4.924H1.847C0.827,4.924,0,5.75,0,6.77v3.693c0,1.018,0.827,1.846,1.847,1.846H2.45V9.23h11.077
		v3.078h0.627c1.02,0,1.846-0.828,1.846-1.846V6.77C16,5.75,15.174,4.924,14.154,4.924z M13.232,8c-0.512,0-0.924-0.412-0.924-0.922
		s0.412-0.924,0.924-0.924c0.51,0,0.922,0.414,0.922,0.924S13.742,8,13.232,8z"/>
</g>
</svg>
