<?xml version="1.0" encoding="utf-8"?>
<!-- Generator: Adobe Illustrator 15.0.0, SVG Export Plug-In . SVG Version: 6.00 Build 0)  -->
<!DOCTYPE svg PUBLIC "-//W3C//DTD SVG 1.1//EN" "http://www.w3.org/Graphics/SVG/1.1/DTD/svg11.dtd">
<svg version="1.1" id="Layer_1" xmlns="http://www.w3.org/2000/svg" xmlns:xlink="http://www.w3.org/1999/xlink" x="0px" y="0px"
	 width="32px" height="32px" viewBox="0 0 32 32" enable-background="new 0 0 32 32" xml:space="preserve">
<path fill="#00ABD6" d="M23.742,9.67c-0.156-0.189-0.434-0.217-0.623-0.063s-0.217,0.434-0.063,0.623
	c1.289,1.572,2.059,3.58,2.059,5.77c0,2.518-1.02,4.793-2.67,6.445c-1.651,1.65-3.926,2.67-6.443,2.67
	c-2.52,0-4.795-1.02-6.447-2.67c-1.648-1.652-2.67-3.928-2.67-6.445s1.021-4.793,2.67-6.445c1.652-1.65,3.928-2.668,6.447-2.668
	c2.111,0,4.055,0.717,5.6,1.924c0.193,0.148,0.471,0.115,0.621-0.078s0.117-0.469-0.076-0.621C20.453,6.789,18.316,6,16.002,6
	C10.477,6,6.001,10.477,6,16c0.001,5.525,4.477,10,10.002,10C21.523,26,26,21.525,26,16C26,13.6,25.152,11.393,23.742,9.67z
	 M19.695,13.166c0-1.91-1.48-3.271-3.531-3.271c-1.859,0-2.826,0.568-3.686,1.637c-0.121,0.154-0.172,0.291-0.172,0.43
	c0,0.326,0.275,0.619,0.602,0.619c0.191,0,0.361-0.084,0.5-0.258c0.707-0.895,1.275-1.256,2.738-1.256
	c1.481,0,2.344,0.859,2.344,2.1c0,1.553-0.758,2.223-3.049,3.223c-0.023,0.01-0.043,0.021-0.064,0.033
	c-0.215,0.088-0.367,0.297-0.367,0.543v1.184c0,0.324,0.262,0.586,0.586,0.586c0.323,0,0.586-0.262,0.586-0.586v-0.742
	C18.549,16.268,19.695,15.379,19.695,13.166z M15.631,20.09c-0.326,0-0.604,0.277-0.604,0.621v0.775
	c0,0.326,0.277,0.621,0.604,0.621c0.344,0,0.604-0.275,0.604-0.621v-0.775C16.234,20.367,15.975,20.09,15.631,20.09z"/>
</svg>
