<?xml version="1.0" encoding="utf-8"?>
<!-- Generator: Adobe Illustrator 15.0.0, SVG Export Plug-In . SVG Version: 6.00 Build 0)  -->
<!DOCTYPE svg PUBLIC "-//W3C//DTD SVG 1.1//EN" "http://www.w3.org/Graphics/SVG/1.1/DTD/svg11.dtd">
<svg version="1.1" id="Layer_1" xmlns="http://www.w3.org/2000/svg" xmlns:xlink="http://www.w3.org/1999/xlink" x="0px" y="0px"
	 width="40px" height="60px" viewBox="0 0 40 60" enable-background="new 0 0 40 60" xml:space="preserve">
<path fill="none" stroke="#00ABD6" stroke-miterlimit="10" d="M33.989,12.147c-0.135-0.406-0.488-0.702-0.914-0.768l-8.329-1.212
	l-3.728-7.545c-0.381-0.777-1.651-0.777-2.035,0l-3.728,7.545l-8.329,1.212c-0.43,0.066-0.784,0.362-0.916,0.768
	c-0.135,0.412-0.023,0.867,0.285,1.167l6.029,5.876L10.9,27.487c-0.072,0.426,0.104,0.856,0.452,1.114
	c0.352,0.25,0.818,0.285,1.197,0.083l7.45-3.914l7.453,3.914c0.166,0.087,0.348,0.131,0.528,0.131c0.234,0,0.47-0.071,0.664-0.214
	c0.352-0.258,0.525-0.688,0.453-1.114l-1.422-8.297l6.028-5.876C34.013,13.014,34.123,12.559,33.989,12.147z"/>
<path fill="#00ABD6" stroke="#00ABD6" stroke-miterlimit="10" d="M33.989,41.104c-0.135-0.406-0.488-0.702-0.914-0.769l-8.329-1.212
	l-3.728-7.546c-0.381-0.777-1.651-0.777-2.035,0l-3.728,7.546l-8.329,1.212c-0.43,0.066-0.784,0.362-0.916,0.769
	c-0.135,0.411-0.023,0.867,0.285,1.167l6.029,5.876L10.9,56.444c-0.072,0.426,0.104,0.855,0.452,1.113
	c0.352,0.251,0.818,0.285,1.197,0.083l7.45-3.914l7.453,3.914c0.166,0.087,0.348,0.131,0.528,0.131c0.234,0,0.47-0.071,0.664-0.214
	c0.352-0.258,0.525-0.688,0.453-1.113l-1.422-8.297l6.028-5.876C34.013,41.972,34.123,41.516,33.989,41.104z"/>
</svg>
