<?xml version="1.0" encoding="utf-8"?>
<!-- Generator: Adobe Illustrator 15.0.0, SVG Export Plug-In . SVG Version: 6.00 Build 0)  -->
<!DOCTYPE svg PUBLIC "-//W3C//DTD SVG 1.1//EN" "http://www.w3.org/Graphics/SVG/1.1/DTD/svg11.dtd">
<svg version="1.1" id="Layer_1" xmlns="http://www.w3.org/2000/svg" xmlns:xlink="http://www.w3.org/1999/xlink" x="0px" y="0px"
	 width="340px" height="140px" viewBox="0 0 340 140" enable-background="new 0 0 340 140" xml:space="preserve">
<rect fill="#FFFFFF" width="340" height="140"/>
<g>
	<path fill="#5F5B5A" d="M149.888,30.415v-8.59h1.711l2.033,6.082c0.188,0.566,0.324,0.99,0.41,1.271
		c0.098-0.313,0.25-0.771,0.457-1.377l2.057-5.977h1.529v8.59h-1.096v-7.189l-2.496,7.189h-1.025l-2.484-7.313v7.313H149.888z"/>
	<path fill="#5F5B5A" d="M163.845,29.647c-0.391,0.332-0.767,0.566-1.128,0.703s-0.749,0.205-1.163,0.205
		c-0.684,0-1.209-0.167-1.576-0.501s-0.551-0.761-0.551-1.28c0-0.305,0.069-0.583,0.208-0.835s0.32-0.454,0.545-0.606
		s0.478-0.268,0.759-0.346c0.207-0.055,0.52-0.107,0.938-0.158c0.852-0.102,1.479-0.223,1.881-0.363
		c0.004-0.145,0.006-0.236,0.006-0.275c0-0.43-0.1-0.732-0.299-0.908c-0.27-0.238-0.67-0.357-1.201-0.357
		c-0.496,0-0.862,0.087-1.099,0.261s-0.411,0.481-0.524,0.923l-1.031-0.141c0.094-0.441,0.248-0.798,0.463-1.069
		s0.525-0.48,0.932-0.627s0.877-0.22,1.412-0.22c0.531,0,0.963,0.063,1.295,0.188s0.576,0.282,0.732,0.472s0.266,0.429,0.328,0.718
		c0.035,0.18,0.053,0.504,0.053,0.973v1.406c0,0.98,0.022,1.601,0.067,1.86s0.134,0.509,0.267,0.747h-1.102
		C163.946,30.196,163.876,29.94,163.845,29.647z M163.757,27.292c-0.383,0.156-0.957,0.289-1.723,0.398
		c-0.434,0.063-0.74,0.133-0.92,0.211s-0.318,0.192-0.416,0.343s-0.146,0.317-0.146,0.501c0,0.281,0.106,0.516,0.319,0.703
		s0.524,0.281,0.935,0.281c0.406,0,0.768-0.089,1.084-0.267s0.549-0.421,0.697-0.729c0.113-0.238,0.17-0.59,0.17-1.055V27.292z"/>
	<path fill="#5F5B5A" d="M166.464,23.038v-1.213h1.055v1.213H166.464z M166.464,30.415v-6.223h1.055v6.223H166.464z"/>
	<path fill="#5F5B5A" d="M169.124,30.415v-6.223h0.949v0.885c0.457-0.684,1.117-1.025,1.98-1.025c0.375,0,0.72,0.067,1.034,0.202
		s0.55,0.312,0.706,0.53s0.266,0.479,0.328,0.779c0.039,0.195,0.059,0.537,0.059,1.025v3.826h-1.055V26.63
		c0-0.43-0.041-0.751-0.123-0.964s-0.228-0.383-0.437-0.51s-0.454-0.19-0.735-0.19c-0.449,0-0.837,0.143-1.163,0.428
		s-0.489,0.826-0.489,1.623v3.398H169.124z"/>
	<path fill="#5F5B5A" d="M181.235,30.415v-7.576h-2.83v-1.014h6.809v1.014h-2.842v7.576H181.235z"/>
	<path fill="#5F5B5A" d="M188.976,29.647c-0.391,0.332-0.767,0.566-1.128,0.703s-0.749,0.205-1.163,0.205
		c-0.684,0-1.209-0.167-1.576-0.501s-0.551-0.761-0.551-1.28c0-0.305,0.069-0.583,0.208-0.835s0.32-0.454,0.545-0.606
		s0.478-0.268,0.759-0.346c0.207-0.055,0.52-0.107,0.938-0.158c0.852-0.102,1.479-0.223,1.881-0.363
		c0.004-0.145,0.006-0.236,0.006-0.275c0-0.43-0.1-0.732-0.299-0.908c-0.27-0.238-0.67-0.357-1.201-0.357
		c-0.496,0-0.862,0.087-1.099,0.261s-0.411,0.481-0.524,0.923l-1.031-0.141c0.094-0.441,0.248-0.798,0.463-1.069
		s0.525-0.48,0.932-0.627s0.877-0.22,1.412-0.22c0.531,0,0.963,0.063,1.295,0.188s0.576,0.282,0.732,0.472s0.266,0.429,0.328,0.718
		c0.035,0.18,0.053,0.504,0.053,0.973v1.406c0,0.98,0.022,1.601,0.067,1.86s0.134,0.509,0.267,0.747h-1.102
		C189.077,30.196,189.007,29.94,188.976,29.647z M188.888,27.292c-0.383,0.156-0.957,0.289-1.723,0.398
		c-0.434,0.063-0.74,0.133-0.92,0.211s-0.318,0.192-0.416,0.343s-0.146,0.317-0.146,0.501c0,0.281,0.106,0.516,0.319,0.703
		s0.524,0.281,0.935,0.281c0.406,0,0.768-0.089,1.084-0.267s0.549-0.421,0.697-0.729c0.113-0.238,0.17-0.59,0.17-1.055V27.292z"/>
	<path fill="#5F5B5A" d="M191.167,28.558l1.043-0.164c0.059,0.418,0.222,0.738,0.489,0.961s0.642,0.334,1.122,0.334
		c0.484,0,0.844-0.099,1.078-0.296s0.352-0.429,0.352-0.694c0-0.238-0.104-0.426-0.311-0.563c-0.145-0.094-0.504-0.213-1.078-0.357
		c-0.773-0.195-1.31-0.364-1.608-0.507s-0.525-0.34-0.68-0.592s-0.231-0.53-0.231-0.835c0-0.277,0.063-0.534,0.19-0.771
		s0.3-0.433,0.519-0.589c0.164-0.121,0.388-0.224,0.671-0.308s0.587-0.126,0.911-0.126c0.488,0,0.917,0.07,1.286,0.211
		s0.642,0.331,0.817,0.571s0.297,0.562,0.363,0.964l-1.031,0.141c-0.047-0.32-0.183-0.57-0.407-0.75s-0.542-0.27-0.952-0.27
		c-0.484,0-0.83,0.08-1.037,0.24s-0.311,0.348-0.311,0.563c0,0.137,0.043,0.26,0.129,0.369c0.086,0.113,0.221,0.207,0.404,0.281
		c0.105,0.039,0.416,0.129,0.932,0.27c0.746,0.199,1.267,0.362,1.562,0.489s0.526,0.312,0.694,0.554s0.252,0.543,0.252,0.902
		c0,0.352-0.103,0.683-0.308,0.993s-0.501,0.551-0.888,0.721s-0.824,0.255-1.313,0.255c-0.809,0-1.425-0.168-1.849-0.504
		S191.284,29.218,191.167,28.558z"/>
	<path fill="#5F5B5A" d="M197.595,30.415v-8.59h1.055v4.898l2.496-2.531h1.365l-2.379,2.309l2.619,3.914h-1.301l-2.057-3.182
		l-0.744,0.715v2.467H197.595z"/>
	<path fill="#5F5B5A" d="M203.167,28.558l1.043-0.164c0.059,0.418,0.222,0.738,0.489,0.961s0.642,0.334,1.122,0.334
		c0.484,0,0.844-0.099,1.078-0.296s0.352-0.429,0.352-0.694c0-0.238-0.104-0.426-0.311-0.563c-0.145-0.094-0.504-0.213-1.078-0.357
		c-0.773-0.195-1.31-0.364-1.608-0.507s-0.525-0.34-0.68-0.592s-0.231-0.53-0.231-0.835c0-0.277,0.063-0.534,0.19-0.771
		s0.3-0.433,0.519-0.589c0.164-0.121,0.388-0.224,0.671-0.308s0.587-0.126,0.911-0.126c0.488,0,0.917,0.07,1.286,0.211
		s0.642,0.331,0.817,0.571s0.297,0.562,0.363,0.964l-1.031,0.141c-0.047-0.32-0.183-0.57-0.407-0.75s-0.542-0.27-0.952-0.27
		c-0.484,0-0.83,0.08-1.037,0.24s-0.311,0.348-0.311,0.563c0,0.137,0.043,0.26,0.129,0.369c0.086,0.113,0.221,0.207,0.404,0.281
		c0.105,0.039,0.416,0.129,0.932,0.27c0.746,0.199,1.267,0.362,1.562,0.489s0.526,0.312,0.694,0.554s0.252,0.543,0.252,0.902
		c0,0.352-0.103,0.683-0.308,0.993s-0.501,0.551-0.888,0.721s-0.824,0.255-1.313,0.255c-0.809,0-1.425-0.168-1.849-0.504
		S203.284,29.218,203.167,28.558z"/>
</g>
<g>
	<path fill="#00ABD6" d="M149.896,51.565l1.787-0.156c0.085,0.716,0.281,1.304,0.591,1.763s0.789,0.83,1.44,1.113
		s1.384,0.425,2.197,0.425c0.723,0,1.36-0.107,1.914-0.322s0.965-0.509,1.235-0.884s0.405-0.783,0.405-1.226
		c0-0.449-0.13-0.841-0.391-1.177s-0.69-0.617-1.289-0.845c-0.384-0.15-1.233-0.382-2.549-0.698s-2.236-0.614-2.764-0.894
		c-0.684-0.358-1.193-0.802-1.528-1.333s-0.503-1.125-0.503-1.782c0-0.723,0.205-1.398,0.615-2.026s1.009-1.105,1.797-1.431
		s1.663-0.488,2.627-0.488c1.062,0,1.997,0.171,2.808,0.513s1.434,0.845,1.87,1.509s0.671,1.416,0.703,2.256l-1.816,0.137
		c-0.098-0.905-0.428-1.588-0.991-2.051s-1.395-0.693-2.495-0.693c-1.146,0-1.98,0.21-2.505,0.63s-0.786,0.926-0.786,1.519
		c0,0.514,0.186,0.938,0.557,1.27c0.364,0.332,1.316,0.672,2.856,1.021s2.596,0.653,3.169,0.913c0.833,0.384,1.448,0.871,1.846,1.46
		s0.596,1.268,0.596,2.036c0,0.762-0.218,1.479-0.654,2.153s-1.063,1.198-1.88,1.572s-1.736,0.562-2.759,0.562
		c-1.296,0-2.381-0.189-3.257-0.566s-1.563-0.946-2.061-1.704S149.922,52.522,149.896,51.565z"/>
	<path fill="#00ABD6" d="M170.755,52.825l1.816,0.225c-0.286,1.061-0.817,1.885-1.592,2.471s-1.765,0.879-2.969,0.879
		c-1.517,0-2.72-0.467-3.608-1.401s-1.333-2.245-1.333-3.931c0-1.745,0.449-3.099,1.348-4.063s2.063-1.445,3.496-1.445
		c1.387,0,2.52,0.472,3.398,1.416s1.318,2.272,1.318,3.984c0,0.104-0.003,0.26-0.01,0.469h-7.734
		c0.065,1.139,0.388,2.012,0.967,2.617s1.302,0.908,2.168,0.908c0.645,0,1.194-0.169,1.65-0.508S170.488,53.567,170.755,52.825z
		 M164.983,49.983h5.791c-0.078-0.873-0.3-1.527-0.664-1.963c-0.56-0.677-1.286-1.016-2.178-1.016c-0.808,0-1.486,0.27-2.036,0.811
		S165.042,49.078,164.983,49.983z"/>
	<path fill="#00ABD6" d="M174.739,56.165V41.848h1.758v14.316H174.739z"/>
	<path fill="#00ABD6" d="M186.321,52.825l1.816,0.225c-0.286,1.061-0.817,1.885-1.592,2.471s-1.765,0.879-2.969,0.879
		c-1.517,0-2.72-0.467-3.608-1.401s-1.333-2.245-1.333-3.931c0-1.745,0.449-3.099,1.348-4.063s2.063-1.445,3.496-1.445
		c1.387,0,2.52,0.472,3.398,1.416s1.318,2.272,1.318,3.984c0,0.104-0.003,0.26-0.01,0.469h-7.734
		c0.065,1.139,0.388,2.012,0.967,2.617s1.302,0.908,2.168,0.908c0.645,0,1.194-0.169,1.65-0.508S186.055,53.567,186.321,52.825z
		 M180.55,49.983h5.791c-0.078-0.873-0.3-1.527-0.664-1.963c-0.56-0.677-1.286-1.016-2.178-1.016c-0.808,0-1.486,0.27-2.036,0.811
		S180.608,49.078,180.55,49.983z"/>
	<path fill="#00ABD6" d="M197.112,52.366l1.729,0.225c-0.188,1.191-0.672,2.124-1.45,2.798s-1.733,1.011-2.866,1.011
		c-1.419,0-2.561-0.464-3.423-1.392s-1.294-2.257-1.294-3.989c0-1.12,0.186-2.1,0.557-2.939s0.936-1.47,1.694-1.89
		s1.584-0.63,2.476-0.63c1.126,0,2.048,0.285,2.764,0.854s1.175,1.378,1.377,2.427l-1.709,0.264
		c-0.163-0.697-0.451-1.221-0.864-1.572s-0.913-0.527-1.499-0.527c-0.886,0-1.604,0.317-2.158,0.952s-0.83,1.639-0.83,3.013
		c0,1.393,0.267,2.406,0.801,3.037s1.23,0.947,2.09,0.947c0.69,0,1.267-0.211,1.729-0.635S196.988,53.245,197.112,52.366z"/>
	<path fill="#00ABD6" d="M204.183,54.592l0.254,1.553c-0.495,0.104-0.938,0.156-1.328,0.156c-0.638,0-1.133-0.101-1.484-0.303
		s-0.599-0.467-0.742-0.796s-0.215-1.021-0.215-2.075v-5.967h-1.289v-1.367h1.289v-2.568l1.748-1.055v3.623h1.768v1.367h-1.768
		v6.064c0,0.501,0.031,0.824,0.093,0.967s0.163,0.257,0.303,0.342s0.34,0.127,0.601,0.127
		C203.606,54.661,203.863,54.638,204.183,54.592z"/>
	<path fill="#00ABD6" d="M211.458,56.165V45.793h1.582v1.475c0.762-1.139,1.862-1.709,3.301-1.709c0.625,0,1.199,0.112,1.724,0.337
		s0.916,0.519,1.177,0.884s0.442,0.797,0.547,1.299c0.065,0.326,0.098,0.895,0.098,1.709v6.377h-1.758v-6.309
		c0-0.716-0.068-1.251-0.205-1.606s-0.379-0.638-0.728-0.85s-0.757-0.317-1.226-0.317c-0.749,0-1.395,0.238-1.938,0.713
		s-0.815,1.377-0.815,2.705v5.664H211.458z"/>
	<path fill="#00ABD6" d="M221.927,50.979c0-1.92,0.534-3.343,1.602-4.268c0.892-0.768,1.979-1.152,3.262-1.152
		c1.426,0,2.591,0.467,3.496,1.401s1.357,2.225,1.357,3.872c0,1.334-0.2,2.384-0.601,3.149s-0.983,1.359-1.748,1.782
		s-1.6,0.635-2.505,0.635c-1.452,0-2.625-0.465-3.521-1.396S221.927,52.73,221.927,50.979z M223.733,50.979
		c0,1.328,0.29,2.323,0.869,2.983s1.309,0.991,2.188,0.991c0.872,0,1.599-0.332,2.178-0.996s0.869-1.676,0.869-3.037
		c0-1.283-0.291-2.254-0.874-2.915s-1.307-0.991-2.173-0.991c-0.879,0-1.608,0.329-2.188,0.986S223.733,49.651,223.733,50.979z"/>
	<path fill="#00ABD6" d="M240.433,56.165v-1.309c-0.657,1.029-1.624,1.543-2.9,1.543c-0.827,0-1.587-0.228-2.28-0.684
		s-1.23-1.092-1.611-1.909s-0.571-1.756-0.571-2.817c0-1.035,0.173-1.974,0.518-2.817s0.862-1.489,1.553-1.938
		s1.462-0.674,2.314-0.674c0.625,0,1.182,0.132,1.67,0.396s0.886,0.607,1.191,1.03v-5.137h1.748v14.316H240.433z M234.876,50.989
		c0,1.328,0.28,2.321,0.84,2.979s1.221,0.986,1.982,0.986c0.769,0,1.421-0.314,1.958-0.942s0.806-1.587,0.806-2.876
		c0-1.419-0.273-2.461-0.82-3.125s-1.221-0.996-2.021-0.996c-0.781,0-1.434,0.319-1.958,0.957S234.876,49.615,234.876,50.989z"/>
	<path fill="#00ABD6" d="M251.927,52.825l1.816,0.225c-0.286,1.061-0.817,1.885-1.592,2.471s-1.765,0.879-2.969,0.879
		c-1.517,0-2.72-0.467-3.608-1.401s-1.333-2.245-1.333-3.931c0-1.745,0.449-3.099,1.348-4.063s2.063-1.445,3.496-1.445
		c1.387,0,2.52,0.472,3.398,1.416s1.318,2.272,1.318,3.984c0,0.104-0.003,0.26-0.01,0.469h-7.734
		c0.065,1.139,0.388,2.012,0.967,2.617s1.302,0.908,2.168,0.908c0.645,0,1.194-0.169,1.65-0.508S251.66,53.567,251.927,52.825z
		 M246.155,49.983h5.791c-0.078-0.873-0.3-1.527-0.664-1.963c-0.56-0.677-1.286-1.016-2.178-1.016c-0.808,0-1.486,0.27-2.036,0.811
		S246.214,49.078,246.155,49.983z"/>
	<path fill="#00ABD6" d="M255.247,53.069l1.738-0.273c0.098,0.697,0.369,1.23,0.815,1.602s1.069,0.557,1.87,0.557
		c0.808,0,1.406-0.165,1.797-0.493s0.586-0.714,0.586-1.157c0-0.397-0.173-0.709-0.518-0.938c-0.241-0.156-0.84-0.355-1.797-0.596
		c-1.289-0.326-2.183-0.607-2.681-0.845s-0.876-0.566-1.133-0.986s-0.386-0.884-0.386-1.392c0-0.462,0.105-0.89,0.317-1.284
		s0.5-0.721,0.864-0.981c0.273-0.202,0.646-0.373,1.118-0.513s0.979-0.21,1.519-0.21c0.813,0,1.528,0.117,2.144,0.352
		s1.069,0.552,1.362,0.952s0.495,0.936,0.605,1.606l-1.719,0.234c-0.078-0.534-0.305-0.951-0.679-1.25s-0.903-0.449-1.587-0.449
		c-0.808,0-1.384,0.133-1.729,0.4s-0.518,0.58-0.518,0.938c0,0.228,0.071,0.433,0.215,0.615c0.144,0.189,0.368,0.345,0.674,0.469
		c0.176,0.065,0.693,0.215,1.553,0.449c1.243,0.332,2.111,0.604,2.603,0.815s0.877,0.519,1.157,0.923s0.42,0.905,0.42,1.504
		c0,0.586-0.171,1.138-0.513,1.655s-0.835,0.918-1.479,1.201s-1.374,0.425-2.188,0.425c-1.348,0-2.375-0.28-3.081-0.84
		S255.442,54.169,255.247,53.069z"/>
</g>
<g>
	<path fill="#F68B20" d="M79.739,61.066c-0.664,0-1.301,0.119-1.896,0.328c-0.582-2.559-2.871-4.477-5.604-4.477
		c-0.779,0-1.523,0.158-2.201,0.439c-0.873-2.063-2.92-3.516-5.299-3.516c-0.61,0-1.197,0.098-1.75,0.275v-8.523
		c0-3.17-2.579-5.75-5.75-5.75s-5.75,2.58-5.75,5.744l-0.048,18.453c-1.521-1.514-3.42-2.855-5.533-3.152
		c-1.433-0.203-3.581-0.004-5.675,2.092c-2.735,2.734-0.793,6.039,0.92,8.955c0.663,1.129,1.349,2.295,1.896,3.535
		c0.581,1.316,1.158,2.773,1.77,4.316c1.48,3.738,3.011,7.605,4.854,10.063c2.109,2.811,2.94,6.041,2.947,6.07
		c0.026,0.105,0.062,0.209,0.105,0.311c0.891,2.068,1.93,3.926,4.798,3.926h19.904c2.494,0,4.365-1.59,5.004-4.236
		c0,0,0.162-0.652,0.41-1.771c0.24-1.078-0.439-2.146-1.518-2.387c-1.076-0.238-2.146,0.439-2.387,1.52
		c-0.232,1.047-0.385,1.662-0.391,1.688c-0.287,1.188-0.807,1.188-1.119,1.188H57.522c-0.222,0-0.31-0.021-0.321-0.021
		c-0.073-0.059-0.285-0.307-0.746-1.355c-0.225-0.818-1.254-4.225-3.582-7.33c-1.521-2.029-2.953-5.641-4.336-9.135
		c-0.626-1.58-1.217-3.072-1.828-4.459c-0.641-1.451-1.42-2.777-2.106-3.947c-1.262-2.145-2.05-3.59-1.541-4.1
		c1.006-1.006,1.785-1.031,2.286-0.961c2.322,0.324,5.115,3.906,6.33,6.086c0.441,0.797,1.366,1.193,2.247,0.969
		c0.882-0.229,1.499-1.021,1.502-1.934l0.063-24.375c0-0.965,0.785-1.75,1.75-1.75s1.75,0.785,1.75,1.75v18.098c0,1.104,0.896,2,2,2
		s2-0.896,2-2v-4.1c0-0.965,0.785-1.75,1.75-1.75s1.75,0.785,1.75,1.75v7.475c0,1.104,0.896,2,2,2c1.105,0,2-0.896,2-2v-4.398
		c0-0.965,0.785-1.75,1.75-1.75s1.75,0.785,1.75,1.75v7.203c0,1.105,0.896,2,2,2c1.105,0,2-0.895,2-2v-3.055
		c0-0.965,0.785-1.75,1.75-1.75s1.75,0.785,1.75,1.75v7.25c0,3.16-0.363,7.035-1.08,11.512c-0.174,1.092,0.568,2.117,1.658,2.291
		c0.107,0.018,0.215,0.025,0.32,0.025c0.965,0,1.814-0.699,1.971-1.684c0.75-4.686,1.131-8.771,1.131-12.145v-7.25
		C85.489,63.645,82.911,61.066,79.739,61.066z"/>
	<path fill="#F68B20" d="M102.741,26.121h-78.09c-2.666,0-4.835,2.168-4.835,4.834v78.09c0,2.666,2.169,4.834,4.835,4.834h78.09
		c2.666,0,4.834-2.168,4.834-4.834v-78.09C107.575,28.289,105.407,26.121,102.741,26.121z M103.575,109.045
		c0,0.459-0.375,0.834-0.834,0.834h-78.09c-0.46,0-0.835-0.375-0.835-0.834v-78.09c0-0.461,0.375-0.834,0.835-0.834h78.09
		c0.459,0,0.834,0.373,0.834,0.834V109.045z"/>
</g>
</svg>
