<?xml version="1.0" encoding="utf-8"?>
<!-- Generator: Adobe Illustrator 15.0.0, SVG Export Plug-In . SVG Version: 6.00 Build 0)  -->
<!DOCTYPE svg PUBLIC "-//W3C//DTD SVG 1.1//EN" "http://www.w3.org/Graphics/SVG/1.1/DTD/svg11.dtd">
<svg version="1.1" id="Layer_1" xmlns="http://www.w3.org/2000/svg" xmlns:xlink="http://www.w3.org/1999/xlink" x="0px" y="0px"
	 width="200px" height="150px" viewBox="0 0 200 150" enable-background="new 0 0 200 150" xml:space="preserve">
<linearGradient id="SVGID_1_" gradientUnits="userSpaceOnUse" x1="2.4131" y1="27.1426" x2="182.9864" y2="122.0832">
	<stop  offset="0" style="stop-color:#0785B9"/>
	<stop  offset="1" style="stop-color:#302D76"/>
</linearGradient>
<path fill="url(#SVGID_1_)" d="M162.492,40.133H95.04c-1.801,0-3.261,1.46-3.261,3.26c0,1.801,1.46,3.262,3.261,3.262h67.452
	c1.802,0,3.262-1.461,3.262-3.262C165.754,41.593,164.294,40.133,162.492,40.133z M196.524,62.285c0-7.366-1.53-14.388-4.552-20.87
	c-0.76-1.631-2.703-2.334-4.332-1.576c-1.633,0.76-2.34,2.7-1.578,4.332c2.616,5.612,3.941,11.706,3.941,18.114
	c0,17.965-10.825,33.478-26.937,38.604c-0.871,0.277-1.586,0.907-1.969,1.737c-0.384,0.828-0.404,1.781-0.053,2.624l4.763,11.434
	l-22.096-13.506c-0.511-0.313-1.1-0.479-1.701-0.479h-34.68c-22.285,0-40.415-18.129-40.415-40.415
	c0-22.284,18.129-40.414,40.415-40.414h43.887c10.95,0,20.975,4.381,28.223,12.336c1.212,1.329,3.275,1.429,4.606,0.213
	c1.331-1.212,1.429-3.274,0.215-4.605c-8.501-9.328-20.237-14.465-33.044-14.465h-43.887c-17.873,0-33.441,10.044-41.366,24.782
	H42.607c-23.477,0-38.06,15.101-38.06,39.408c0,16.222,9.156,30.415,23.123,36.394l-5.836,14.021
	c-0.544,1.303-0.186,2.811,0.888,3.729c0.606,0.519,1.362,0.785,2.123,0.785c0.585,0,1.174-0.158,1.699-0.479l24.602-15.038h27.786
	c9.936,0,19.019-3.703,25.958-9.794c0.807,0.042,1.623,0.063,2.442,0.063h33.763l29.888,18.269c0.525,0.322,1.112,0.48,1.7,0.48
	c0.76,0,1.516-0.266,2.119-0.785c1.074-0.918,1.435-2.426,0.891-3.729l-7.315-17.562C185.352,98.934,196.524,81.847,196.524,62.285z
	 M78.931,112.43H50.227c-0.599,0-1.188,0.166-1.7,0.479l-16.811,10.276l3.276-7.868c0.352-0.843,0.333-1.796-0.052-2.623
	c-0.384-0.829-1.099-1.46-1.97-1.737c-13.101-4.167-21.902-16.791-21.902-31.415c0-20.593,11.79-32.886,31.539-32.886h20.476
	c-1.733,4.892-2.686,10.151-2.686,15.63c0,21.883,15.054,40.315,35.351,45.485C90.822,110.719,85.077,112.43,78.931,112.43z
	 M162.492,74.782H95.04c-1.801,0-3.261,1.46-3.261,3.26c0,1.801,1.46,3.261,3.261,3.261h67.452c1.802,0,3.262-1.46,3.262-3.261
	C165.754,76.242,164.294,74.782,162.492,74.782z M162.492,57.457H95.04c-1.801,0-3.261,1.459-3.261,3.261
	c0,1.8,1.46,3.26,3.261,3.26h67.452c1.802,0,3.262-1.46,3.262-3.26C165.754,58.917,164.294,57.457,162.492,57.457z"/>
</svg>
