<?xml version="1.0" encoding="utf-8"?>
<!-- Generator: Adobe Illustrator 15.0.0, SVG Export Plug-In . SVG Version: 6.00 Build 0)  -->
<!DOCTYPE svg PUBLIC "-//W3C//DTD SVG 1.1//EN" "http://www.w3.org/Graphics/SVG/1.1/DTD/svg11.dtd">
<svg version="1.1" id="Layer_1" xmlns="http://www.w3.org/2000/svg" xmlns:xlink="http://www.w3.org/1999/xlink" x="0px" y="0px"
	 width="340px" height="140px" viewBox="0 0 340 140" enable-background="new 0 0 340 140" xml:space="preserve">
<rect fill="#FFFFFF" width="340" height="140"/>
<g enable-background="new    ">
	<path fill="#5F5B5A" d="M149.888,30.415v-8.59h1.711l2.033,6.082c0.188,0.566,0.324,0.99,0.41,1.271
		c0.098-0.313,0.25-0.771,0.457-1.377l2.057-5.977h1.529v8.59h-1.096v-7.189l-2.496,7.189h-1.025l-2.484-7.313v7.313H149.888z"/>
	<path fill="#5F5B5A" d="M163.845,29.647c-0.391,0.332-0.767,0.566-1.128,0.703s-0.749,0.205-1.163,0.205
		c-0.684,0-1.209-0.167-1.576-0.501s-0.551-0.761-0.551-1.28c0-0.305,0.069-0.583,0.208-0.835s0.32-0.454,0.545-0.606
		s0.478-0.268,0.759-0.346c0.207-0.055,0.52-0.107,0.938-0.158c0.852-0.102,1.479-0.223,1.881-0.363
		c0.004-0.145,0.006-0.236,0.006-0.275c0-0.43-0.1-0.732-0.299-0.908c-0.27-0.238-0.67-0.357-1.201-0.357
		c-0.496,0-0.862,0.087-1.099,0.261s-0.411,0.481-0.524,0.923l-1.031-0.141c0.094-0.441,0.248-0.798,0.463-1.069
		s0.525-0.48,0.932-0.627s0.877-0.22,1.412-0.22c0.531,0,0.963,0.063,1.295,0.188s0.576,0.282,0.732,0.472s0.266,0.429,0.328,0.718
		c0.035,0.18,0.053,0.504,0.053,0.973v1.406c0,0.98,0.022,1.601,0.067,1.86s0.134,0.509,0.267,0.747h-1.102
		C163.946,30.196,163.876,29.94,163.845,29.647z M163.757,27.292c-0.383,0.156-0.957,0.289-1.723,0.398
		c-0.434,0.063-0.74,0.133-0.92,0.211s-0.318,0.192-0.416,0.343s-0.146,0.317-0.146,0.501c0,0.281,0.106,0.516,0.319,0.703
		s0.524,0.281,0.935,0.281c0.406,0,0.768-0.089,1.084-0.267s0.549-0.421,0.697-0.729c0.113-0.238,0.17-0.59,0.17-1.055V27.292z"/>
	<path fill="#5F5B5A" d="M166.464,23.038v-1.213h1.055v1.213H166.464z M166.464,30.415v-6.223h1.055v6.223H166.464z"/>
	<path fill="#5F5B5A" d="M169.124,30.415v-6.223h0.949v0.885c0.457-0.684,1.117-1.025,1.98-1.025c0.375,0,0.72,0.067,1.034,0.202
		s0.55,0.312,0.706,0.53s0.266,0.479,0.328,0.779c0.039,0.195,0.059,0.537,0.059,1.025v3.826h-1.055v-3.785
		c0-0.43-0.041-0.751-0.123-0.964s-0.228-0.383-0.437-0.51s-0.454-0.19-0.735-0.19c-0.449,0-0.837,0.143-1.163,0.428
		s-0.489,0.826-0.489,1.623v3.398H169.124z"/>
	<path fill="#5F5B5A" d="M181.235,30.415v-7.576h-2.83v-1.014h6.809v1.014h-2.842v7.576H181.235z"/>
	<path fill="#5F5B5A" d="M188.976,29.647c-0.391,0.332-0.767,0.566-1.128,0.703s-0.749,0.205-1.163,0.205
		c-0.684,0-1.209-0.167-1.576-0.501s-0.551-0.761-0.551-1.28c0-0.305,0.069-0.583,0.208-0.835s0.32-0.454,0.545-0.606
		s0.478-0.268,0.759-0.346c0.207-0.055,0.52-0.107,0.938-0.158c0.852-0.102,1.479-0.223,1.881-0.363
		c0.004-0.145,0.006-0.236,0.006-0.275c0-0.43-0.1-0.732-0.299-0.908c-0.27-0.238-0.67-0.357-1.201-0.357
		c-0.496,0-0.862,0.087-1.099,0.261s-0.411,0.481-0.524,0.923l-1.031-0.141c0.094-0.441,0.248-0.798,0.463-1.069
		s0.525-0.48,0.932-0.627s0.877-0.22,1.412-0.22c0.531,0,0.963,0.063,1.295,0.188s0.576,0.282,0.732,0.472s0.266,0.429,0.328,0.718
		c0.035,0.18,0.053,0.504,0.053,0.973v1.406c0,0.98,0.022,1.601,0.067,1.86s0.134,0.509,0.267,0.747h-1.102
		C189.077,30.196,189.007,29.94,188.976,29.647z M188.888,27.292c-0.383,0.156-0.957,0.289-1.723,0.398
		c-0.434,0.063-0.74,0.133-0.92,0.211s-0.318,0.192-0.416,0.343s-0.146,0.317-0.146,0.501c0,0.281,0.106,0.516,0.319,0.703
		s0.524,0.281,0.935,0.281c0.406,0,0.768-0.089,1.084-0.267s0.549-0.421,0.697-0.729c0.113-0.238,0.17-0.59,0.17-1.055V27.292z"/>
	<path fill="#5F5B5A" d="M191.167,28.557l1.043-0.164c0.059,0.418,0.222,0.738,0.489,0.961s0.642,0.334,1.122,0.334
		c0.484,0,0.844-0.099,1.078-0.296s0.352-0.429,0.352-0.694c0-0.238-0.104-0.426-0.311-0.563c-0.145-0.094-0.504-0.213-1.078-0.357
		c-0.773-0.195-1.31-0.364-1.608-0.507s-0.525-0.34-0.68-0.592s-0.231-0.53-0.231-0.835c0-0.277,0.063-0.534,0.19-0.771
		s0.3-0.433,0.519-0.589c0.164-0.121,0.388-0.224,0.671-0.308s0.587-0.126,0.911-0.126c0.488,0,0.917,0.07,1.286,0.211
		s0.642,0.331,0.817,0.571s0.297,0.562,0.363,0.964l-1.031,0.141c-0.047-0.32-0.183-0.57-0.407-0.75s-0.542-0.27-0.952-0.27
		c-0.484,0-0.83,0.08-1.037,0.24s-0.311,0.348-0.311,0.563c0,0.137,0.043,0.26,0.129,0.369c0.086,0.113,0.221,0.207,0.404,0.281
		c0.105,0.039,0.416,0.129,0.932,0.27c0.746,0.199,1.267,0.362,1.562,0.489s0.526,0.312,0.694,0.554s0.252,0.543,0.252,0.902
		c0,0.352-0.103,0.683-0.308,0.993s-0.501,0.551-0.888,0.721s-0.824,0.255-1.313,0.255c-0.809,0-1.425-0.168-1.849-0.504
		S191.284,29.217,191.167,28.557z"/>
	<path fill="#5F5B5A" d="M197.595,30.415v-8.59h1.055v4.898l2.496-2.531h1.365l-2.379,2.309l2.619,3.914h-1.301l-2.057-3.182
		l-0.744,0.715v2.467H197.595z"/>
	<path fill="#5F5B5A" d="M203.167,28.557l1.043-0.164c0.059,0.418,0.222,0.738,0.489,0.961s0.642,0.334,1.122,0.334
		c0.484,0,0.844-0.099,1.078-0.296s0.352-0.429,0.352-0.694c0-0.238-0.104-0.426-0.311-0.563c-0.145-0.094-0.504-0.213-1.078-0.357
		c-0.773-0.195-1.31-0.364-1.608-0.507s-0.525-0.34-0.68-0.592s-0.231-0.53-0.231-0.835c0-0.277,0.063-0.534,0.19-0.771
		s0.3-0.433,0.519-0.589c0.164-0.121,0.388-0.224,0.671-0.308s0.587-0.126,0.911-0.126c0.488,0,0.917,0.07,1.286,0.211
		s0.642,0.331,0.817,0.571s0.297,0.562,0.363,0.964l-1.031,0.141c-0.047-0.32-0.183-0.57-0.407-0.75s-0.542-0.27-0.952-0.27
		c-0.484,0-0.83,0.08-1.037,0.24s-0.311,0.348-0.311,0.563c0,0.137,0.043,0.26,0.129,0.369c0.086,0.113,0.221,0.207,0.404,0.281
		c0.105,0.039,0.416,0.129,0.932,0.27c0.746,0.199,1.267,0.362,1.562,0.489s0.526,0.312,0.694,0.554s0.252,0.543,0.252,0.902
		c0,0.352-0.103,0.683-0.308,0.993s-0.501,0.551-0.888,0.721s-0.824,0.255-1.313,0.255c-0.809,0-1.425-0.168-1.849-0.504
		S203.284,29.217,203.167,28.557z"/>
</g>
<rect x="148.997" y="41.844" fill="none" width="171.681" height="72.369"/>
<g enable-background="new    ">
	<path fill="#00ABD6" d="M159.935,41.847h1.895v8.271c0,1.438-0.163,2.581-0.488,3.428s-0.913,1.535-1.763,2.065
		s-1.964,0.796-3.345,0.796c-1.341,0-2.438-0.231-3.291-0.693s-1.461-1.131-1.826-2.007s-0.547-2.072-0.547-3.589v-8.271h1.895
		v8.262c0,1.243,0.116,2.16,0.347,2.749s0.628,1.043,1.191,1.362s1.251,0.479,2.065,0.479c1.393,0,2.386-0.315,2.979-0.947
		s0.889-1.846,0.889-3.643V41.847z"/>
	<path fill="#00ABD6" d="M164.759,60.138V45.792h1.602v1.348c0.377-0.527,0.804-0.923,1.279-1.187s1.051-0.396,1.729-0.396
		c0.885,0,1.667,0.228,2.344,0.684s1.188,1.099,1.533,1.929s0.518,1.74,0.518,2.729c0,1.062-0.19,2.017-0.571,2.866
		s-0.934,1.501-1.66,1.953s-1.489,0.679-2.29,0.679c-0.586,0-1.112-0.124-1.577-0.371s-0.848-0.56-1.147-0.938v5.049H164.759z
		 M166.351,51.037c0,1.335,0.27,2.321,0.811,2.959s1.195,0.957,1.963,0.957c0.781,0,1.45-0.33,2.007-0.991s0.835-1.685,0.835-3.071
		c0-1.321-0.272-2.312-0.815-2.969s-1.193-0.986-1.948-0.986c-0.749,0-1.411,0.35-1.987,1.05S166.351,49.702,166.351,51.037z"/>
	<path fill="#00ABD6" d="M175.56,57.023l1.709,0.254c0.071,0.527,0.271,0.911,0.596,1.152c0.437,0.325,1.032,0.488,1.787,0.488
		c0.813,0,1.442-0.163,1.885-0.488s0.742-0.781,0.898-1.367c0.091-0.358,0.134-1.11,0.127-2.256
		c-0.769,0.905-1.726,1.357-2.871,1.357c-1.426,0-2.529-0.515-3.311-1.543s-1.172-2.263-1.172-3.701
		c0-0.989,0.179-1.902,0.537-2.739s0.878-1.482,1.558-1.938s1.479-0.684,2.397-0.684c1.224,0,2.233,0.495,3.027,1.484v-1.25h1.621
		v8.965c0,1.614-0.165,2.759-0.493,3.433s-0.85,1.206-1.563,1.597s-1.59,0.586-2.632,0.586c-1.237,0-2.236-0.278-2.998-0.835
		S175.533,58.143,175.56,57.023z M177.015,50.792c0,1.36,0.271,2.354,0.811,2.979s1.218,0.938,2.031,0.938
		c0.808,0,1.484-0.311,2.031-0.933s0.82-1.597,0.82-2.925c0-1.27-0.282-2.227-0.845-2.871s-1.242-0.967-2.036-0.967
		c-0.781,0-1.445,0.317-1.992,0.952S177.015,49.542,177.015,50.792z"/>
	<path fill="#00ABD6" d="M186.985,56.164V45.792h1.582v1.572c0.403-0.735,0.776-1.221,1.118-1.455s0.718-0.352,1.128-0.352
		c0.593,0,1.194,0.188,1.807,0.566l-0.605,1.631c-0.43-0.254-0.859-0.381-1.289-0.381c-0.384,0-0.729,0.115-1.035,0.347
		s-0.524,0.552-0.654,0.962c-0.195,0.625-0.293,1.309-0.293,2.051v5.43H186.985z"/>
	<path fill="#00ABD6" d="M200.433,54.884c-0.651,0.554-1.278,0.944-1.88,1.172s-1.248,0.342-1.938,0.342
		c-1.14,0-2.015-0.278-2.627-0.835s-0.918-1.268-0.918-2.134c0-0.508,0.116-0.972,0.347-1.392s0.533-0.757,0.908-1.011
		s0.796-0.446,1.265-0.576c0.345-0.091,0.866-0.179,1.563-0.264c1.419-0.169,2.464-0.371,3.135-0.605
		c0.007-0.241,0.01-0.394,0.01-0.459c0-0.716-0.166-1.221-0.498-1.514c-0.449-0.397-1.116-0.596-2.002-0.596
		c-0.827,0-1.437,0.145-1.831,0.435s-0.686,0.803-0.874,1.538l-1.719-0.234c0.156-0.735,0.413-1.33,0.771-1.782
		s0.876-0.801,1.553-1.045s1.462-0.366,2.354-0.366c0.886,0,1.604,0.104,2.158,0.313s0.96,0.471,1.221,0.786
		s0.442,0.715,0.547,1.196c0.059,0.3,0.088,0.84,0.088,1.621v2.344c0,1.634,0.038,2.668,0.112,3.101s0.223,0.848,0.444,1.245h-1.836
		C200.602,55.799,200.484,55.373,200.433,54.884z M200.286,50.958c-0.638,0.261-1.595,0.481-2.871,0.664
		c-0.723,0.104-1.233,0.222-1.533,0.352s-0.53,0.32-0.693,0.571s-0.244,0.529-0.244,0.835c0,0.469,0.177,0.859,0.532,1.172
		s0.874,0.469,1.558,0.469c0.677,0,1.279-0.148,1.807-0.444s0.915-0.701,1.162-1.216c0.188-0.397,0.283-0.983,0.283-1.758V50.958z"
		/>
	<path fill="#00ABD6" d="M211.517,56.164v-1.309c-0.657,1.028-1.624,1.543-2.9,1.543c-0.827,0-1.587-0.228-2.28-0.684
		s-1.23-1.092-1.611-1.909s-0.571-1.756-0.571-2.817c0-1.035,0.173-1.975,0.518-2.817s0.862-1.489,1.553-1.938
		s1.462-0.674,2.314-0.674c0.625,0,1.182,0.132,1.67,0.396s0.886,0.607,1.191,1.03v-5.137h1.748v14.316H211.517z M205.96,50.988
		c0,1.328,0.28,2.321,0.84,2.979s1.221,0.986,1.982,0.986c0.769,0,1.421-0.314,1.958-0.942s0.806-1.587,0.806-2.876
		c0-1.419-0.273-2.461-0.82-3.125s-1.221-0.996-2.021-0.996c-0.781,0-1.435,0.319-1.958,0.957S205.96,49.614,205.96,50.988z"/>
	<path fill="#00ABD6" d="M223.011,52.824l1.816,0.225c-0.286,1.062-0.817,1.885-1.592,2.471s-1.765,0.879-2.969,0.879
		c-1.517,0-2.72-0.467-3.608-1.401s-1.333-2.244-1.333-3.931c0-1.745,0.449-3.099,1.348-4.063s2.063-1.445,3.496-1.445
		c1.387,0,2.52,0.472,3.398,1.416s1.318,2.272,1.318,3.984c0,0.104-0.003,0.261-0.01,0.469h-7.734
		c0.065,1.14,0.388,2.012,0.967,2.617s1.302,0.908,2.168,0.908c0.645,0,1.194-0.169,1.65-0.508S222.744,53.566,223.011,52.824z
		 M217.239,49.982h5.791c-0.078-0.872-0.3-1.526-0.664-1.963c-0.56-0.677-1.286-1.016-2.178-1.016c-0.808,0-1.485,0.271-2.036,0.811
		S217.298,49.077,217.239,49.982z"/>
	<path fill="#00ABD6" d="M231.888,53.068l1.738-0.273c0.098,0.696,0.37,1.23,0.815,1.602s1.069,0.557,1.87,0.557
		c0.808,0,1.406-0.164,1.797-0.493s0.586-0.715,0.586-1.157c0-0.397-0.173-0.71-0.518-0.938c-0.241-0.156-0.84-0.354-1.797-0.596
		c-1.289-0.325-2.183-0.607-2.681-0.845s-0.875-0.566-1.133-0.986s-0.386-0.884-0.386-1.392c0-0.462,0.106-0.891,0.317-1.284
		s0.5-0.721,0.864-0.981c0.273-0.202,0.646-0.373,1.118-0.513s0.979-0.21,1.519-0.21c0.813,0,1.528,0.117,2.144,0.352
		s1.069,0.552,1.362,0.952s0.495,0.936,0.605,1.606l-1.719,0.234c-0.078-0.534-0.304-0.95-0.679-1.25s-0.903-0.449-1.587-0.449
		c-0.808,0-1.384,0.134-1.729,0.4s-0.518,0.579-0.518,0.938c0,0.228,0.071,0.433,0.215,0.615c0.144,0.188,0.368,0.345,0.674,0.469
		c0.176,0.065,0.693,0.215,1.553,0.449c1.243,0.332,2.11,0.604,2.603,0.815s0.877,0.52,1.157,0.923s0.42,0.905,0.42,1.504
		c0,0.586-0.171,1.138-0.513,1.655s-0.835,0.918-1.479,1.201s-1.374,0.425-2.188,0.425c-1.348,0-2.374-0.28-3.081-0.84
		S232.083,54.168,231.888,53.068z"/>
	<path fill="#00ABD6" d="M241.937,50.978c0-1.921,0.534-3.343,1.602-4.268c0.892-0.769,1.979-1.152,3.262-1.152
		c1.426,0,2.591,0.467,3.496,1.401s1.357,2.225,1.357,3.872c0,1.335-0.2,2.385-0.601,3.149s-0.982,1.359-1.748,1.782
		s-1.6,0.635-2.505,0.635c-1.452,0-2.626-0.466-3.521-1.396S241.937,52.729,241.937,50.978z M243.743,50.978
		c0,1.328,0.29,2.322,0.869,2.983s1.309,0.991,2.188,0.991c0.872,0,1.599-0.332,2.178-0.996s0.869-1.677,0.869-3.037
		c0-1.282-0.292-2.254-0.874-2.915s-1.307-0.991-2.173-0.991c-0.879,0-1.608,0.329-2.188,0.986S243.743,49.65,243.743,50.978z"/>
	<path fill="#00ABD6" d="M254.134,56.164V47.16h-1.553v-1.367h1.553v-1.104c0-0.696,0.062-1.214,0.186-1.553
		c0.169-0.456,0.468-0.825,0.894-1.108s1.023-0.425,1.792-0.425c0.495,0,1.042,0.059,1.641,0.176l-0.264,1.533
		c-0.364-0.065-0.71-0.098-1.035-0.098c-0.534,0-0.911,0.114-1.133,0.342s-0.332,0.654-0.332,1.279v0.957h2.021v1.367h-2.021v9.004
		H254.134z"/>
	<path fill="#00ABD6" d="M263.108,54.591l0.254,1.553c-0.495,0.104-0.938,0.156-1.328,0.156c-0.638,0-1.133-0.101-1.484-0.303
		s-0.599-0.467-0.742-0.796s-0.215-1.021-0.215-2.075V47.16h-1.289v-1.367h1.289v-2.568l1.748-1.055v3.623h1.768v1.367h-1.768v6.064
		c0,0.501,0.03,0.823,0.093,0.967s0.162,0.257,0.303,0.342s0.34,0.127,0.601,0.127C262.532,54.66,262.789,54.637,263.108,54.591z"/>
	<path fill="#00ABD6" d="M266.741,56.164l-3.174-10.371h1.816l1.65,5.986l0.615,2.227c0.026-0.11,0.205-0.823,0.537-2.139
		l1.65-6.074h1.807l1.553,6.016l0.518,1.982l0.596-2.002l1.777-5.996h1.709l-3.242,10.371h-1.826l-1.65-6.211l-0.4-1.768l-2.1,7.979
		H266.741z"/>
	<path fill="#00ABD6" d="M286.038,54.884c-0.651,0.554-1.278,0.944-1.88,1.172s-1.248,0.342-1.938,0.342
		c-1.14,0-2.015-0.278-2.627-0.835s-0.918-1.268-0.918-2.134c0-0.508,0.116-0.972,0.347-1.392s0.533-0.757,0.908-1.011
		s0.796-0.446,1.265-0.576c0.345-0.091,0.866-0.179,1.563-0.264c1.419-0.169,2.464-0.371,3.135-0.605
		c0.007-0.241,0.01-0.394,0.01-0.459c0-0.716-0.166-1.221-0.498-1.514c-0.449-0.397-1.116-0.596-2.002-0.596
		c-0.827,0-1.437,0.145-1.831,0.435s-0.686,0.803-0.874,1.538l-1.719-0.234c0.156-0.735,0.413-1.33,0.771-1.782
		s0.876-0.801,1.553-1.045s1.462-0.366,2.354-0.366c0.886,0,1.604,0.104,2.158,0.313s0.96,0.471,1.221,0.786
		s0.442,0.715,0.547,1.196c0.059,0.3,0.088,0.84,0.088,1.621v2.344c0,1.634,0.038,2.668,0.112,3.101s0.223,0.848,0.444,1.245h-1.836
		C286.207,55.799,286.09,55.373,286.038,54.884z M285.892,50.958c-0.638,0.261-1.595,0.481-2.871,0.664
		c-0.723,0.104-1.233,0.222-1.533,0.352s-0.53,0.32-0.693,0.571s-0.244,0.529-0.244,0.835c0,0.469,0.177,0.859,0.532,1.172
		s0.874,0.469,1.558,0.469c0.677,0,1.279-0.148,1.807-0.444s0.915-0.701,1.162-1.216c0.188-0.397,0.283-0.983,0.283-1.758V50.958z"
		/>
	<path fill="#00ABD6" d="M290.374,56.164V45.792h1.582v1.572c0.403-0.735,0.776-1.221,1.118-1.455s0.718-0.352,1.128-0.352
		c0.593,0,1.194,0.188,1.807,0.566l-0.605,1.631c-0.43-0.254-0.859-0.381-1.289-0.381c-0.384,0-0.729,0.115-1.035,0.347
		s-0.524,0.552-0.654,0.962c-0.195,0.625-0.293,1.309-0.293,2.051v5.43H290.374z"/>
	<path fill="#00ABD6" d="M304.153,52.824l1.816,0.225c-0.286,1.062-0.817,1.885-1.592,2.471s-1.765,0.879-2.969,0.879
		c-1.517,0-2.72-0.467-3.608-1.401s-1.333-2.244-1.333-3.931c0-1.745,0.449-3.099,1.348-4.063s2.063-1.445,3.496-1.445
		c1.387,0,2.52,0.472,3.398,1.416s1.318,2.272,1.318,3.984c0,0.104-0.003,0.261-0.01,0.469h-7.734
		c0.065,1.14,0.388,2.012,0.967,2.617s1.302,0.908,2.168,0.908c0.645,0,1.194-0.169,1.65-0.508S303.887,53.566,304.153,52.824z
		 M298.382,49.982h5.791c-0.078-0.872-0.3-1.526-0.664-1.963c-0.56-0.677-1.286-1.016-2.178-1.016c-0.808,0-1.485,0.271-2.036,0.811
		S298.44,49.077,298.382,49.982z"/>
</g>
<path fill="#7A2165" d="M68.113,33.215c-1.683,0-3.335,0.115-4.955,0.336c-1.095,0.148-1.86,1.158-1.712,2.252
	c0.147,1.094,1.157,1.859,2.252,1.711c1.44-0.195,2.916-0.297,4.415-0.297C86.219,37.25,100.863,51.895,100.895,70
	c-0.031,18.105-14.676,32.752-32.781,32.783C50.005,102.752,35.36,88.105,35.327,70c0-5.295,1.264-10.273,3.485-14.691
	c4.926,4.584,9.802,9.121,10.883,10.123c2.184,2.025,3.652,0.52,3.595-0.977c-0.057-1.5,3.14-22.484,3.083-23.99
	c-0.032-1.189-0.285-2.305-1.171-3.141c-0.904-0.834-2.038-0.998-3.222-0.961c-0.69,0.025-23.22,4.791-23.72,4.799
	c-1.487,0.063-2.975,1.557-0.703,3.67c0.913,0.852,4.324,4.027,8.216,7.648c-2.83,5.207-4.447,11.178-4.447,17.52
	c0.002,20.314,16.468,36.781,36.787,36.783c20.315-0.002,36.782-16.469,36.782-36.783C104.896,49.684,88.429,33.217,68.113,33.215z"
	/>
</svg>
