<?xml version="1.0" encoding="utf-8"?>
<!-- Generator: Adobe Illustrator 15.0.0, SVG Export Plug-In . SVG Version: 6.00 Build 0)  -->
<!DOCTYPE svg PUBLIC "-//W3C//DTD SVG 1.1//EN" "http://www.w3.org/Graphics/SVG/1.1/DTD/svg11.dtd">
<svg version="1.1" id="Layer_1" xmlns="http://www.w3.org/2000/svg" xmlns:xlink="http://www.w3.org/1999/xlink" x="0px" y="0px"
	 width="16px" height="16px" viewBox="0 0 16 16" enable-background="new 0 0 16 16" xml:space="preserve">
<g id="Layer_76_4_">
	<g>
		<path fill="#1D1D1B" d="M10.218,9.796c-0.098-0.037-0.727-0.317-0.33-1.502H9.872c1.025-1.052,1.801-2.735,1.801-4.403
			C11.673,1.342,9.978,0,7.999,0C6.024,0,4.333,1.342,4.333,3.891c0,1.671,0.779,3.366,1.799,4.413
			c0.402,1.048-0.311,1.434-0.461,1.492c-2.068,0.743-4.49,2.107-4.49,3.454c0,0.36,0,0.142,0,0.504c0,1.83,3.551,2.246,6.842,2.246
			s6.799-0.416,6.799-2.246c0-0.362,0-0.144,0-0.504C14.821,11.86,12.38,10.511,10.218,9.796z"/>
	</g>
</g>
</svg>
