<?xml version="1.0" encoding="utf-8"?>
<!-- Generator: Adobe Illustrator 15.0.0, SVG Export Plug-In . SVG Version: 6.00 Build 0)  -->
<!DOCTYPE svg PUBLIC "-//W3C//DTD SVG 1.1//EN" "http://www.w3.org/Graphics/SVG/1.1/DTD/svg11.dtd">
<svg version="1.1" id="Layer_1" xmlns="http://www.w3.org/2000/svg" xmlns:xlink="http://www.w3.org/1999/xlink" x="0px" y="0px"
	 width="16px" height="16px" viewBox="0 0 16 16" enable-background="new 0 0 16 16" xml:space="preserve">
<g>
	<circle fill="none" stroke="#F68B20" stroke-width="1.875" stroke-miterlimit="10" cx="8" cy="8" r="6.625"/>
	<g>
		<path fill="#F68B20" d="M7.362,8.574L7.177,5.797c-0.035-0.541-0.052-0.93-0.052-1.165c0-0.321,0.084-0.571,0.252-0.751
			S7.766,3.61,8.041,3.61c0.332,0,0.554,0.115,0.667,0.346C8.819,4.186,8.875,4.518,8.875,4.95c0,0.256-0.013,0.515-0.04,0.777
			L8.586,8.585c-0.027,0.34-0.085,0.602-0.174,0.782C8.322,9.55,8.176,9.641,7.971,9.641c-0.208,0-0.354-0.088-0.435-0.264
			S7.397,8.933,7.362,8.574z M8.006,12.389c-0.235,0-0.441-0.076-0.617-0.229c-0.176-0.153-0.264-0.366-0.264-0.641
			c0-0.241,0.084-0.444,0.252-0.612s0.374-0.252,0.617-0.252c0.244,0,0.451,0.084,0.624,0.252c0.171,0.168,0.257,0.371,0.257,0.612
			c0,0.27-0.086,0.482-0.261,0.637C8.44,12.312,8.238,12.389,8.006,12.389z"/>
	</g>
</g>
</svg>
