<?xml version="1.0" encoding="utf-8"?>
<!-- Generator: Adobe Illustrator 15.0.0, SVG Export Plug-In . SVG Version: 6.00 Build 0)  -->
<!DOCTYPE svg PUBLIC "-//W3C//DTD SVG 1.1//EN" "http://www.w3.org/Graphics/SVG/1.1/DTD/svg11.dtd">
<svg version="1.1" id="Layer_1" xmlns="http://www.w3.org/2000/svg" xmlns:xlink="http://www.w3.org/1999/xlink" x="0px" y="0px"
	 width="16px" height="16px" viewBox="0 0 16 16" enable-background="new 0 0 16 16" xml:space="preserve">
<path fill="#231F20" d="M15.81,13.499l-3.017-3.017c-0.266-0.265-0.746-0.239-1.229,0.014l-1.313-1.318
	c1.714-2.24,1.551-5.455-0.499-7.504c-2.23-2.231-5.848-2.231-8.08,0c-2.23,2.23-2.23,5.848,0,8.081
	c2.05,2.048,5.266,2.21,7.506,0.496l1.314,1.315c-0.249,0.481-0.276,0.962-0.011,1.227l3.016,3.017
	c0.382,0.382,1.21,0.172,1.847-0.467C15.982,14.707,16.189,13.88,15.81,13.499z M2.523,8.903c-1.762-1.761-1.762-4.618,0-6.381
	c1.763-1.761,4.616-1.761,6.381,0c1.761,1.763,1.761,4.617,0,6.381C7.139,10.668,4.283,10.668,2.523,8.903z"/>
</svg>
