<?xml version="1.0" encoding="utf-8"?>
<!-- Generator: Adobe Illustrator 15.0.0, SVG Export Plug-In . SVG Version: 6.00 Build 0)  -->
<!DOCTYPE svg PUBLIC "-//W3C//DTD SVG 1.1//EN" "http://www.w3.org/Graphics/SVG/1.1/DTD/svg11.dtd">
<svg version="1.1" id="Layer_1" xmlns="http://www.w3.org/2000/svg" xmlns:xlink="http://www.w3.org/1999/xlink" x="0px" y="0px"
	 width="16px" height="16px" viewBox="0 0 16 16" enable-background="new 0 0 16 16" xml:space="preserve">
<path fill="#FDB913" d="M15.838,6.165c-0.076-0.23-0.275-0.397-0.514-0.433l-4.666-0.678L8.57,0.825
	c-0.214-0.434-0.926-0.434-1.14,0l-2.087,4.23L0.676,5.732C0.437,5.768,0.237,5.935,0.163,6.165c-0.075,0.23-0.013,0.482,0.16,0.651
	L3.7,10.107l-0.797,4.648c-0.041,0.238,0.058,0.479,0.253,0.621c0.196,0.143,0.456,0.161,0.67,0.049L8,13.232l4.174,2.193
	c0.094,0.049,0.195,0.073,0.297,0.073c0.131,0,0.262-0.041,0.373-0.122c0.195-0.143,0.293-0.383,0.252-0.621l-0.797-4.648
	l3.377-3.292C15.85,6.647,15.912,6.396,15.838,6.165z"/>
</svg>
