<?xml version="1.0" encoding="utf-8"?>
<!-- Generator: Adobe Illustrator 15.0.0, SVG Export Plug-In . SVG Version: 6.00 Build 0)  -->
<!DOCTYPE svg PUBLIC "-//W3C//DTD SVG 1.1//EN" "http://www.w3.org/Graphics/SVG/1.1/DTD/svg11.dtd">
<svg version="1.1" id="Layer_1" xmlns="http://www.w3.org/2000/svg" xmlns:xlink="http://www.w3.org/1999/xlink" x="0px" y="0px"
	 width="14px" height="14px" viewBox="0 0 14 14" enable-background="new 0 0 14 14" xml:space="preserve">
<g>
	<path fill="#00ABD6" d="M5.97,10.336L3.781,8.148l3.205-3.206l2.188,2.188L5.97,10.336z M11.393,4.912L9.203,2.725L7.397,4.532
		L9.584,6.72L11.393,4.912z M3.372,8.559v2.146l2.146,0.001L3.372,8.559z"/>
	<path fill="#00ABD6" d="M7,14c-3.86,0-7-3.141-7-7s3.14-7,7-7c1.387,0,2.729,0.405,3.879,1.173c0.23,0.153,0.291,0.464,0.139,0.693
		c-0.154,0.229-0.463,0.291-0.693,0.139C9.338,1.348,8.189,1,7,1C3.691,1,1,3.691,1,7s2.691,6,6,6s6-2.691,6-6
		c0-1.182-0.344-2.324-0.99-3.305c-0.152-0.229-0.09-0.54,0.141-0.692c0.23-0.153,0.541-0.089,0.693,0.142C13.6,4.288,14,5.622,14,7
		C14,10.859,10.859,14,7,14z"/>
</g>
</svg>
