<?xml version="1.0" encoding="utf-8"?>
<!-- Generator: Adobe Illustrator 15.0.0, SVG Export Plug-In . SVG Version: 6.00 Build 0)  -->
<!DOCTYPE svg PUBLIC "-//W3C//DTD SVG 1.1//EN" "http://www.w3.org/Graphics/SVG/1.1/DTD/svg11.dtd">
<svg version="1.1" id="Layer_1" xmlns="http://www.w3.org/2000/svg" xmlns:xlink="http://www.w3.org/1999/xlink" x="0px" y="0px"
	 width="14px" height="14px" viewBox="0 0 14 14" enable-background="new 0 0 14 14" xml:space="preserve">
<path fill="#FFFFFF" d="M7,14c-3.86,0-7-3.141-7-7s3.14-7,7-7c1.386,0,2.728,0.405,3.878,1.173c0.23,0.153,0.291,0.464,0.139,0.693
	c-0.154,0.229-0.463,0.291-0.693,0.139C9.338,1.348,8.189,1,7,1C3.692,1,1,3.691,1,7s2.691,6,6,6c3.308,0,6-2.691,6-6
	c0-1.182-0.342-2.324-0.99-3.305c-0.152-0.229-0.09-0.54,0.141-0.692c0.23-0.153,0.541-0.089,0.693,0.142C13.6,4.288,14,5.622,14,7
	C14,10.859,10.859,14,7,14z"/>
<path fill="#FFFFFF" d="M7.838,10.563V7.838h2.725C11.025,7.838,11.4,7.463,11.4,7s-0.375-0.838-0.838-0.839H7.838V3.438
	C7.838,2.976,7.463,2.6,7,2.601C6.538,2.6,6.162,2.976,6.163,3.438L6.162,6.162L3.438,6.161C2.975,6.161,2.6,6.537,2.6,7
	s0.375,0.838,0.838,0.838h2.724l0.001,2.725C6.163,11.025,6.537,11.4,7,11.4C7.463,11.4,7.838,11.024,7.838,10.563z"/>
</svg>
